/* XPM */
static char *simplerep_xpm[] = {
/* columns rows colors chars-per-pixel */
"16 16 16 1",
". c #0e0529",
"X c #0f0c53",
"o c #63100b",
"O c #54505b",
"+ c #262b93",
"@ c #5d5db4",
"# c #6c6dcc",
"$ c #7591e3",
"% c #ac6a36",
"& c #f1ca41",
"* c #b0a49b",
"= c #a3ade4",
"- c #afc9ec",
"; c #ccdcf7",
": c #f9fcff",
"> c None",
/* pixels */
">>>>>>>>>>>>>>>>",
"++#######@.>>>>>",
"+@=-;;;;::=X.oo>",
"X@$==----;:=o%%o",
"X@==$=---;-*&:&o",
"X@=-=$$*=#%&&&%o",
"X+=-*-*-*%&&&%>>",
"X+$;-=--%&&&%>>>",
"XX$;---%&&%o>>>>",
">X$;;-**&%%O>>>>",
">X@-:*O*%%;*>>>>",
">.@-;*O*=;:=>>>>",
">.+-;;:::::;X>>>",
">>X==-------O>>>",
">>X@@@@###$#O>>>",
">>>>>>>>>>>>>>>>"
};
