/* XPM */
static char *sqliteStorage_xpm[] = {
/* columns rows colors chars-per-pixel */
"16 16 17 1",
"  c #020505",
". c #111c1b",
"X c #1e4945",
"o c #246254",
"O c #630b0c",
"+ c #326ca2",
"@ c #2178d3",
"# c #58b266",
"$ c #3492df",
"% c #a54648",
"& c #ee6869",
"* c #a5bec6",
"= c #95eb9a",
"- c #f0898a",
"; c #e1d5d0",
": c #fefefe",
"> c None",
/* pixels */
">>>>>>>>OO>>>>>>",
">>>>>OO%--%OO>>>",
">>OO%--&&&&-&%OO",
">>O%----&&&&&&%O",
">>%&&%&&&&&&-;;>",
">XO-&&&&%-;:::;O",
"X@+%&--&&:::;&%>",
"+@@++%%&&;-%%>>>",
"+$$$@@++%%*;*.>>",
"X@$$$$+::::*+#X>",
">.oo@@@:*+oo#*X>",
">X==#oooo#*:::X>",
">.#====#=::::;X>",
">>.X##==*:;#o.>>",
">>>>>.X##o.>>>>>",
">>>>>>>.>>>>>>>>"
};
