/* XPM */
static const char *iweInventory_xpm[] = {
/* columns rows colors chars-per-pixel */
"16 16 16 1",
". c #193812",
"X c #1d4f43",
"o c #0348b4",
"O c #1747b0",
"+ c #1268f5",
"@ c #55a846",
"# c #5fac61",
"$ c #54a48e",
"% c #61a6f7",
"& c #87d376",
"* c #a9df9f",
"= c #95c4e3",
"- c #a4cdfd",
"; c #cfe7eb",
": c #fefffe",
"> c None",
/* pixels */
">>>>>>>>>>>>>>>>",
"ooooooo>>>>>>>>>",
"o:::::oX>>>>>>>>",
"o;;;-;:oooooo>>>",
"o-----;:::::oX>>",
"o-%+++++++++++X>",
"o=+:::::::::::+>",
"o%$**&=-----+=+>",
"O#::;;#=---=+-+>",
"X&:;**&#%%=%+%+>",
"@&*@@@.X$%%%+%+>",
"@X&@..@@O%%%+%+>",
"@.&&@@@@O+%%O%+>",
"X&&&&&&Xo+++o+X>",
".&***;#>>>>>>>>>",
">.@&#@.>>>>>>>>>"
};
