/* XPM */
static char *weHttps[] = {
/* columns rows colors chars-per-pixel */
"16 16 16 1",
". c #5f3444",
"X c #0046b5",
"o c #156ff8",
"O c #52549f",
"+ c #3887ed",
"@ c #67a7f7",
"# c #a3130c",
"$ c #c84c43",
"% c #d9615c",
"& c #ae7b90",
"* c #98acc9",
"= c #acd2ff",
"- c #eca29c",
"; c #d4d7e5",
": c #fdfdfd",
"> c None",
/* pixels */
">XXXXX>>>>>>>>>>",
"X:::::X>>>>>>>>>",
"X;;=;;:XXXXX>>>>",
"X======:::::X>>>",
"X=@+oooooooooo>>",
"X=o::::%%;::::o>",
"X@o===&--.*=o=o>",
"X@o==*%:-$O@+@o>",
"X+o==$-;;-#+o@o>",
"X+o=*%:&&-$.O@o>",
"Xo+@.-:&&:$#X@o>",
"Xo+.$-:;;:-#.oo>",
">XX$%;:**:;$#>>>",
">>#$$--%&-&$##>>",
">>############>>",
">>>>>>>>>>>>>>>>"
};
