/* XPM */
static char *iweTransport_xpm[] = {
/* columns rows colors chars-per-pixel */
"16 16 17 1",
"  c #06060c",
". c #1c1d2d",
"X c #0b316b",
"o c #40333e",
"O c #5a5958",
"+ c #043e99",
"@ c #1e57a5",
"# c #3a6fba",
"$ c #5aa1e6",
"% c #64a0e3",
"& c #d9a762",
"* c #9f9ba0",
"= c #95b6df",
"- c #a4d3fd",
"; c #cde6fd",
": c #fbfeff",
"> c None",
/* pixels */
">>>>+#$%=%@X.>>>",
">>@@=;:::::=+ >>",
">+@%;;;;;;;:-@.>",
">@$%;;;;--;-=#+ ",
">##%--=%*%##X+# ",
">#@@$-%#@XXX@## ",
">#@+@$$-$X+#%%%.",
">@#@$$$$$@#%$$# ",
">X$%---=%%--=%X ",
"> +--------;-# >",
">> X%----;;=X  >",
">>>>.X@%$#X..>>>",
">>>O>>O**  o>>>>",
">>O***&&&&*=* >>",
">>OO**&&&&*** >>",
">>>.   oo.    >>"
};
