/* XPM */
static char *fsStorage_xpm[] = {
/* columns rows colors chars-per-pixel */
"16 16 17 1",
"  c #060507",
". c #2d2b2e",
"X c #3a3a44",
"o c #50311b",
"O c #595760",
"+ c #767787",
"@ c #7f828b",
"# c #b87446",
"$ c #e7b65b",
"% c #efb55c",
"& c #9b9baa",
"* c #b6b6c9",
"= c #d1bbae",
"- c #cecfd6",
"; c #d9dede",
": c #ececec",
"> c None",
/* pixels */
">O&&&&&&&&&*&+>>",
"O+**-*----;;-+>>",
"O+********---&.>",
"O&*******----*X>",
"+&**********--O>",
"+-:;----------+>",
"&::::::::;;;;;&>",
"*::::::::::;::-.",
"=:;;;;::;;;;;:;X",
"-:--;--:::::::;X",
"*:--;-;::::::--.",
".OOOOOO*+OOOOOX ",
">  XXX#=o OX   >",
">>>&--$%%=-& >>>",
">>OO@+#%$O+O >>>",
">>>.   o     >>>"
};
