/* XPM */
static char *redis_xpm[] = {
/* columns rows colors chars-per-pixel */
"16 16 16 1",
"  c #040404",
". c #242728",
"X c #3d4c47",
"o c #666565",
"O c #1e8448",
"+ c #63c2ce",
"@ c red",
"# c #8e807f",
"$ c #979196",
"% c #b0b1af",
"& c #8effff",
"* c #d1adb0",
"= c #d3b4c8",
"- c #d3d2d3",
"; c #efe7df",
": c white",
/* pixels */
"::::::::::::::::",
":::% ..  .-:::::",
":::::  ::. %::::",
":::::  ::o $::::",
":::::  -:. %::::",
":::::  %  ::::::",
":::::  :: .:::::",
":::::  ::  :o:::",
"::::-  ;:  %.:::",
"::::    $- .;:::",
":;:::::::;:;::::",
"- X :o$X*@@@+$o-",
"::%;:$$#:&&:+%o-",
"::$%%OX%=o%:$-%:",
"::;X$==*oX%%o.::",
":::;;%%;::----::"
};
