/* XPM */
static char *wot[] = {
/* columns rows colors chars-per-pixel */
"16 16 17 1",
"  c #050404",
". c #293217",
"X c #3c5607",
"o c #3b7308",
"O c #64765c",
"+ c #458d0c",
"@ c #56ab0b",
"# c #7f8d67",
"$ c #6dc710",
"% c #94bf64",
"& c #a4da61",
"* c #ee8e0e",
"= c #f2eb31",
"- c #c0da9c",
"; c #f1fbb4",
": c #fcfefc",
"> c None",
/* pixels */
"X.>*>>*...>>>>>>",
".*>=#=%&&&&#>>>>",
">>;:;++@@@@@%>>>",
"*=:::=*+@$$@@$>>",
".-;:;+@X.Xo@$@+>",
".=@=+$>>>>XX+$@>",
"*%$*@.X>>>>XX@@.",
"#-$o$>>.>>>XX+@X",
"O&$@$.>>>>>XXo@X",
".-$@$X>>>>.Xo+@.",
">%$@@$X>>.XXo+@>",
">X$$@@@@+oXoo@X>",
">>+@@@++oooo+@>>",
">>>o++ooo++>>>>>",
">>>>.o++++o.>>>>",
">>>>>>>>>>>>>>>>"
};
