/* XPM */
static char *_apply_xpm[] = {
/* columns rows colors chars-per-pixel */
"24 24 14 1",
"  c black",
". c #0e0e0e",
"X c gray11",
"o c #313131",
"O c gray22",
"+ c #4c4c4c",
"@ c #676767",
"# c gray53",
"$ c #a4a4a4",
"% c #c8c8c8",
"& c #d0d0d0",
"* c #e4e4e4",
"= c #f9f9f9",
"- c None",
/* pixels */
"------------------------",
"------------------------",
"------------------------",
"--------------------O@X-",
"-------------------O$$X-",
"-----------------.@%%@--",
"----------------O#*%@---",
"---------------@$*&@.---",
"-.@X---------X@%**@.----",
"-X$$X-------O$&*&@------",
"--@&#X----XO$**%@X------",
"--X%*@.--X@%***#X-------",
"---@=*@XO$***&#.--------",
"---O$=%@$***%#O---------",
"---.#**&**&&#O----------",
"----o$*&&&&#X-----------",
"----.#&&&%#+------------",
"-----+$&%$+-------------",
"-----.#%$o--------------",
"------+$+---------------",
"------o+o---------------",
"------------------------",
"------------------------",
"------------------------"
};
