/* XPM */
static char *_date_xpm[] = {
/* columns rows colors chars-per-pixel */
"16 16 13 1",
"  c #020202",
". c #252525",
"X c gray23",
"o c gray27",
"O c #5d5d5d",
"+ c DimGray",
"@ c #838383",
"# c #989898",
"$ c gray73",
"% c gray80",
"& c gainsboro",
"* c #f8f8f8",
"= c None",
/* pixels */
"====+++++## ====",
"==+++##$&*&.====",
"++#$$&&****+ ===",
"#&*&*******$ ===",
"#*****&&***&o ==",
"+&***&&&$&**# ==",
"o$***&**$&**$.==",
".#*****&$$***o =",
".+%****&&$$**# =",
"=.#******$$**&. ",
"=.+%**&$$$&***+ ",
"==.#**&&&**&%%@ ",
"== +%**&%%###+o ",
"===o#%###OOX.   ",
"===.+OOo.    ===",
"=== ..    ======"
};
