/* XPM */
static char *_flstatus_xpm[] = {
/* columns rows colors chars-per-pixel */
"16 16 13 1",
"  c black",
". c gray14",
"X c #343434",
"o c #444444",
"O c #606060",
"+ c #767676",
"@ c gray47",
"# c #848484",
"$ c #929292",
"% c gray63",
"& c gray78",
"* c gray82",
"= c None",
/* pixels */
"================",
"================",
"===#%%%++++=====",
"==#%%%%++++O====",
"=#%%%%&$+++O$===",
"=%%%%&&$$+++O===",
"=#%%%&**$+++O===",
"=#%%%&&$$+++O===",
"=##%#&@@$+++O===",
"=###oooooO++O===",
"=#@ooooooo@OO===",
"=.XoooooooXX====",
"==.XXoXooXX=====",
"====.XXXX.======",
"================",
"================"
};
