/* XPM */
static char *_webInventory_xpm[] = {
/* columns rows colors chars-per-pixel */
"48 48 32 1",
"  c #010101",
". c gray4",
"X c gray8",
"o c gray11",
"O c gray14",
"+ c gray16",
"@ c gray20",
"# c #393939",
"$ c gray26",
"% c gray30",
"& c #555555",
"* c gray36",
"= c #626262",
"- c gray43",
"; c gray46",
": c #7e7e7e",
"> c #848484",
", c #8b8b8b",
"< c gray57",
"1 c gray62",
"2 c #a2a2a2",
"3 c gray67",
"4 c gray70",
"5 c gray74",
"6 c #c0c0c0",
"7 c gray80",
"8 c #d5d5d5",
"9 c gray89",
"0 c #eaeaea",
"q c #f1f1f1",
"w c white",
"e c None",
/* pixels */
"eeeeeeeeeeeeeeeeeeeeeeeeeeeeeeeeeeeeeeeeeeeeeeee",
"eeeeeeeeeeeeeeeeeeeeeeeeeeeeee  ...... eeeeeeeee",
"eewwwwwwwwwwwwwwwwwwwwwwwwww XO#*****#OX. eeeeee",
"eewqqqqqqqqqqqqqqqqqqqqqqq XO*-<25551<,&@X eeeee",
"eewq                      o#,133<4441151<&O eeee",
"eewq 666555562.655555555 O*<2<<<<354<<2422*O eee",
"eewq 5,,,,,,,,.5,,,,,,, o*13,,<<<4211244441*O ee",
"eewq 2,,,,,,,, 2,,,,,,,.#,3,,42<1152<1433341#Xee",
"eewq  .    .  . .  ..  O,433353<11111355533<,@.e",
"eewq 655665552 qqqqqqqX*<3333<<<<22145453333>*X.",
"eewq 5,,,,,,,, qqqqqq O-4333<<<<,<,143<14333<,O ",
"eewq 5,,,,,,,, qqqqq0 #,,33,<<<,<<<1444<1433,,#.",
"eewq 5,,,,,,,,.qqqq00.*<,>><<<<<<<<455533<3,<,*X",
"eewq 5,,,,,,,, qqq000.*3>,,<<<<,<,<5555533<,>,*X",
"eewq 2,,,,,,,, q00000.*2<<,;<,<<<<>5545333><,<*X",
"eewq   .         .   .*<*,,<<,<<<<,3533333,>*<*X",
"eewq 655555552.000000.=<**,,3<,<<,<,<>4333,>*<*X",
"eewq 5,,,,,,,, 000000.#-**>,33,>,;;;;;>333,=*-#.",
"eewq 6,,,,,,,, 000000 O*;*>,3333,=====,,33>***+ ",
"eewq 5,,,>,,,, 0000000X*;**,333,,*=*&*;,33>*-*o ",
"eewq 6,,,,,>,, 00094>&.O*=**<33,-*****;,3,***#.e",
"eewq 2,,,,,,,, 02&$->2 X#<**,3,-*=****=,3>*;&o e",
"eewq.          O;3>>>>> O*<*>,>=**=*=**><-<*O ee",
"eewq 6655552>@;4>>>>>>>> O*<>>********=*--*O eee",
"eewq 5,,,,,&$4>>>>>>>>>>> O#--************O eeee",
"eew0 5,,,,%*4>>>>>>>>>>>>> X#******=***=#o eeeee",
"eew0 5,,,=$4>>>>>>>>>>>>>:::.oO#****=#Oo. eeeeee",
"eew0 5,,,@4>>>>>>>>>>>::::>:>  .XXXXX.  ;;Xeeeee",
"eew0 2,,&>>>>>>>>>>>>::::::>>:>::-;-------*eeeee",
"eew0    .4>>>>>>>>>::::>>:::::::------&&&&> eeee",
"eew0 565o5>>>>>>>>:::>:>::>:>>--;;-;--&%&&>oeeee",
"eew0 5,,X4>>>>>>:::>::::::>;;;;===&&&&&&&&>Oeeee",
"eew0 6,,X5>>>>>:>:::>::::25;::;;:::*&**&**,oeeee",
"eew0 6,,o8>>>>>::::::::>:66,;::::;********,Xeeee",
"eew0 6,,o84>:>::::::::::>666;:;::**&****&,&Xeeee",
"eew0 5,,o38>:::::>:::>:-2666,:::*=&=*&*&:,#.eeee",
"eew0     348>>:::::::---56666;:**&&***&:,#+eeeee",
"eew000007@334>:::>:>;--;66666<*******&:,#@.eeeee",
"eew000009>&334>>::>----2666666:&**&&*,,#Ooeeeeee",
"ee07777775;#3332:------6666666<=&*=,,&#O#eeeeeee",
"eeeeeeeeeee +;222>>----66666666,:,,&###Oeeeeeeee",
"eeeeeeeeeeeeeX$2>>>>;-366666666<&&###@oeeeeeeeee",
"eeeeeeeeeeeeee X&>>;;;<<<1<<,,,=####O eeeeeeeeee",
"eeeeeeeeeeeeeeee X@$;;<<<,,,<,,*#@X eeeeeeeeeeee",
"eeeeeeeeeeeeeeeeeee .X@*=,,=*=@o eeeeeeeeeeeeeee",
"eeeeeeeeeeeeeeeeeeeeeeeeeeeeeeeeeeeeeeeeeeeeeeee",
"eeeeeeeeeeeeeeeeeeeeeeeeeeeeeeeeeeeeeeeeeeeeeeee",
"eeeeeeeeeeeeeeeeeeeeeeeeeeeeeeeeeeeeeeeeeeeeeeee"
};
