/* XPM */
static char *apply_xpm[] = {
/* columns rows colors chars-per-pixel */
"24 24 16 1",
". c #04140c",
"X c #052a14",
"o c #24324c",
"O c #05571a",
"+ c #255e55",
"@ c #189c26",
"# c #3cbb3e",
"$ c #51e23c",
"% c #62d64d",
"& c #97f65b",
"* c #acf56c",
"= c #d9fe71",
"- c #b4ec86",
"; c #d6fb95",
": c #fcfed4",
"> c None",
/* pixels */
">>>>>>>>>>>>>>>>>>>>>>>>",
">>>>>>>>>>>>>>>>>>>>>>>>",
">>>>>>>>>>>>>>>>>>>>>>>>",
">>>>>>>>>>>>>>>>>>>>O@X>",
">>>>>>>>>>>>>>>>>>>O$$X>",
">>>>>>>>>>>>>>>>>.@&&@>>",
">>>>>>>>>>>>>>>>O#=&@>>>",
">>>>>>>>>>>>>>>@$=*@.>>>",
">.@X>>>>>>>>>X@&==@.>>>>",
">X$$X>>>>>>>O$*=*@>>>>>>",
">>@*#X>>>>XO%=;&@X>>>>>>",
">>X&;@.>>X@&;==#X>>>>>>>",
">>>@:;@XO%;;;*#.>>>>>>>>",
">>>O%:&@%;;;*#O>>>>>>>>>",
">>>.#;;-;;-*#O>>>>>>>>>>",
">>>>o%;---*#X>>>>>>>>>>>",
">>>>.#---&#+>>>>>>>>>>>>",
">>>>>+%*&%+>>>>>>>>>>>>>",
">>>>>.#&%o>>>>>>>>>>>>>>",
">>>>>>+%+>>>>>>>>>>>>>>>",
">>>>>>o+o>>>>>>>>>>>>>>>",
">>>>>>>>>>>>>>>>>>>>>>>>",
">>>>>>>>>>>>>>>>>>>>>>>>",
">>>>>>>>>>>>>>>>>>>>>>>>"
};
