/* XPM */
static char *date_xpm[] = {
/* columns rows colors chars-per-pixel */
"16 16 17 1",
"  c #070504",
". c #272524",
"X c #2d3b5d",
"o c #3c455e",
"O c #666770",
"+ c #2e63b8",
"@ c #537198",
"# c #6089bf",
"$ c #61a5f1",
"% c #9399a1",
"& c #b9b9c1",
"* c #a9d6f3",
"= c #fe9d9d",
"- c #d5dfe4",
"; c #fccecf",
": c #f6f9fa",
"> c None",
/* pixels */
">>>>OOOOO%% >>>>",
">>OOO%%&-:-.>>>>",
"OO%&&--::::O >>>",
"%-:-:::::::& >>>",
"%:::::;;:::-o >>",
"O-:::;;;=;::% >>",
"o&:::;::=;::&.>>",
".%:::::;==:::o >",
".O*::::;;==::% >",
">.%::::::==::-. ",
">.O*::;===;:::@ ",
">>.$::-;;::-**# ",
">> @*::-**$$$+o ",
">>>o$*$$$++X.   ",
">>>.+++X.    >>>",
">>> ..    >>>>>>"
};
