/* XPM */
static char *export_xpm[] = {
/* columns rows colors chars-per-pixel */
"16 16 17 1",
"  c #010307",
". c #061a18",
"X c #15283d",
"o c #4647a6",
"O c #7479c5",
"+ c #519468",
"@ c #5ed132",
"# c #5ac044",
"$ c #7c82ca",
"% c #91ef65",
"& c #a6a6e2",
"* c #bbf79b",
"= c #bac8fa",
"- c #cfd6fc",
"; c #dde4fe",
": c #edf1fe",
"> c None",
/* pixels */
">>>Xoo$&$oXX>>>>",
">>oo&:::::=OX>>>",
">oo-::::::::O.>>",
"oo-::;:;:::::o >",
"o&:;;:;-;:;;;&X ",
"o-;;;-&&&-;--=o ",
"O:;;;&&&&====-O ",
"$;;;-=&X&=++&-O.",
"$:;;-&&&&+@@+&O ",
"O:;-;-&&+#@@@#+.",
"X&;;::-+#@@%%%@.",
"Xo::::-+@@%%%*%.",
">X$:::--+@%%**%.",
">>.O-;-:;+@**:%.",
">>>.XO$&&+@%%*#.",
">>>>   . .#.... "
};
