/* XPM */
static char *flsave_xpm[] = {
/* columns rows colors chars-per-pixel */
"16 16 17 1",
"  c #01010d",
". c #070823",
"X c #0e1b8d",
"o c #2c49b5",
"O c #316bdd",
"+ c #4351b5",
"@ c #496dd5",
"# c #3392ff",
"$ c #5797ee",
"% c #74b2f8",
"& c #73c5ff",
"* c #96addc",
"= c #8dc9fe",
"- c #bdc0d7",
"; c #d3d3dc",
": c #f6f8fb",
"> c None",
/* pixels */
">>>>>>>>>>>>>>>>",
">Xo++++++++++oX ",
">o=::::::::::%O.",
">o=::::::::::%O.",
">o=::::::;;::%O ",
">o=::::::::::%O ",
">o=::::::::::=O.",
">o=:::::::::;&O.",
">o===%*%$$%%%%O.",
">o&$*****=%OO#O.",
">+&$;;;:::;O##O.",
">+%$;+*:;:;O##O.",
">+&$-+@;;;;O##@.",
">+&$--;;;;-$###.",
">X$@*--****@O$o ",
"> .... ..... .  "
};
