/* XPM */
static char *panReports[] = {
/* columns rows colors chars-per-pixel */
"48 48 65 1",
"  c #020000",
". c #07030f",
"X c #1e1112",
"o c #100f63",
"O c #68250f",
"+ c #71324e",
"@ c #535b53",
"# c #010e94",
"$ c #082fac",
"% c #0934e4",
"& c #2352b5",
"* c #026cfe",
"= c #2060d6",
"- c #5b559a",
"; c #53a32c",
": c #5fab65",
"> c #63cd2f",
", c #2c83f6",
"< c #5d93e3",
"1 c #5396fb",
"2 c #58acff",
"3 c #58b2ff",
"4 c #6eaefe",
"5 c #7cc3ff",
"6 c #920202",
"7 c #a32316",
"8 c #a83c4d",
"9 c #8e4f13",
"0 c #af5a02",
"q c #b36400",
"w c #906467",
"e c #ce0000",
"r c #d60303",
"t c #f33432",
"y c #c45d00",
"u c #c96900",
"i c #f65131",
"p c #fe4847",
"a c #f26152",
"s c #fe7270",
"d c #c17092",
"f c #9cc261",
"g c #df911b",
"h c #f7b60e",
"j c #f1ae56",
"k c #ffcf0b",
"l c #fedc29",
"z c #ffe532",
"x c #f7d34b",
"c c #ffe54f",
"v c #ffe86e",
"b c #83bdff",
"n c #a587cb",
"m c #a6eb96",
"M c #8fc9ff",
"N c #afdfff",
"B c #f88f8d",
"V c #d6d9a8",
"C c #ffef8e",
"Z c #fff3af",
"A c #cde3e7",
"S c #fff9d2",
"D c #f0f6f1",
"F c white",
"G c None",
/* pixels */
"GGGGGGGGGGGGGGGGGGGGGGGGGGGGGGGGGGGGGGGGGGGGGGGG",
"GGGGGGGGGGGGGGGGGGGGGGGGGGGGGGGGGGGGGGGGGGGGGGGG",
"GGGGGGGGGGGGGGGGGGGGGGGGGGGGGGGGGGGGGGGGGGGGGGGG",
"GGGGGGGGGGGGGGGGGGGGGGGGGGGG##$.GGGGGGGGGGGGGGGG",
"GGGGGGGGGGGGGGGGGGGGGGGGGGG##<4&ooGGGGGGGGGGGGGG",
"GGGGGuyyyyyyyyyyyyyyyyyquy+&bN54,$9yuyyyy0GGGGGG",
"GGGGyuygugguuguuuguguggg9-4NNM4441=+uguguqXGGGGG",
"GGGGyqgkvvvvvvvvvvvvvvvw-NANNM54222,&fvxhu9 GGGG",
"GGGGyqhzFFFFFFFFFFDFFFA%NDANNM533333*=DZku9 GGGG",
"GGGGyqhzSSSSSSSSSSSSSDV&4bANNM54332**&VCku9 GGGG",
"GGGGqqhzSSSSSSSSSSSSSSV%224NNM553,***&ZCkg9 GGGG",
"GGGGqqhzZSZZZZZZZZSZZZV&2222MMM3,****&VCkg9 GGGG",
"GGGGyqhlZZZZZZZZZZZZZZV&3222332******&Vvku9 GGGG",
"GGGGyqhlCCCCCCCCCCCCCCV&332233,******&Vvkg9 GGGG",
"GGGGqqhlCCCCCCCCCCCCCvf=332223,******&vcku9 GGGG",
"GGGGqqhlvvvvvvvvvvvvf;@=322323,******&xcku9 GGGG",
"GGGGq0hlvvcvvvvcvvvf;>:=332323,******&xckq9 GGGG",
"GGGGq0hkccccccccxx;;mm:=332223,*****&+0zkg9 GGGG",
"GGGGq0hklcxcxclx>;:mmm:=333333,****o7s87gu9 GGGG",
"GGGGq0hkklzzzll;;AAmmm:=333323***$+asssa779 GGGG",
"GGGGq0hkhkkllll;fmVmmm:=322223,*-8sBsssss86XGGGG",
"GGGG00gkhhhhhhl;>>mmmm:=323223=+aBBssssaasa7O GG",
"GGGGq0gllhhhhhh;>>>>fm:=332223+aBBBBsssssssa6 GG",
"GGGG00ghhhhhhhh;>>>>>>:,322223+tpBBBBssssatr6 GG",
"GGGGq0ghkhgwww-@@:;>>>:=332233+tppsBssssarrr6 GG",
"GGGGq9ghw--wdjfjww-@:>;*3233238tpttpsBstrerr6 GG",
"GGGGq9w-dsaijczzxxzf$=&=433333+tppptpaterrrr6 GG",
"GGGG9-nBaappizxxxxx&,1=&=33333+tpppppteeeerr6 GG",
"GGG%=nBsaapiijzzzx-*211,&&<333+tppppptereeer6 GG",
"GGG%njsssaaiiizzz:=221112&&333+tpptppteeeeer6 GG",
"GG%%Bssssaiiiilzw=221121,1&<33+tptpppteeeeer6 GG",
"GG$&&&&-w8iiitgf&1212111,2=&33+tpppppteeeeer6 GG",
"GG$<Nb4<==&&++w&14141111111$<3+tippppteeeeer6 GG",
"GG$4MMbMMM441==144111111111$<3+ipptppteeeeer6.GG",
"GG$<MMbbb4bb444441411111111$=3+tpppppteeeeer6 GG",
"GG$<MMMbbb4444444141111111<#w,+tptpppteeeeer6 GG",
"GG$=MMMbbbbb444414142111,4=$gx9epppppteeerreO GG",
"GG#=4Mbbbb4444444411111,2<$ojxjy6tpppteere6X  GG",
"GG#$,4bbbbb4444441411112<&$wjjjxg77ppteeeOX GGGG",
"GGG#&11bbbb444444412122<=$ojxjxjjxu7tpe6OOO GGGG",
"GGG##&*11bbb444434444<==$o9gggggggguO7OO99X GGGG",
"GGGG##$==,14444442<,=&$$o@99+999+9999OO99O  GGGG",
"GGGGGG#o&===,=======&$#oXXXXXXXXXXXXXXXX.  GGGGG",
"GGGGGGG.oo#$&%&=%$$#oo  GGGGGGGGGGGGGGGGGGGGGGGG",
"GGGGGGGGGG..oooooo.. GGGGGGGGGGGGGGGGGGGGGGGGGGG",
"GGGGGGGGGGGGGGGGGGGGGGGGGGGGGGGGGGGGGGGGGGGGGGGG",
"GGGGGGGGGGGGGGGGGGGGGGGGGGGGGGGGGGGGGGGGGGGGGGGG",
"GGGGGGGGGGGGGGGGGGGGGGGGGGGGGGGGGGGGGGGGGGGGGGGG"
};
