/* XPM */
static char *tree_yes[] = {
/* columns rows colors chars-per-pixel */
"16 16 17 1",
"  c #040808",
". c #082d24",
"X c #064c12",
"o c #1e6b2b",
"O c #204e3f",
"+ c #0d970c",
"@ c #329831",
"# c #29b51d",
"$ c #49934f",
"% c #5abc56",
"& c #4dce33",
"* c #66db49",
"= c #83f158",
"- c #94cd95",
"; c #b5e4b4",
": c #e5f4e5",
"> c None",
/* pixels */
">>>>>>>>>>>>>>>>",
">>>>>>.O..>>>>>>",
">>>>Xo-::-O.>>>>",
">>>X$;:::::$.>>>",
">>.@;;:::::;$.>>",
">>X@-;;::;;-@X>>",
">.o+%-;;;;-%+o.>",
">X+++%----%+++O>",
">o###&&&&&&###O>",
">X@##&&**&&&#@.>",
">>o&&&****&&&o>>",
">>.$&&*==**&$.>>",
">>>.$*====*$.>>>",
">>>>.O%==%o.>>>>",
">>>>>>.OO.>>>>>>",
">>>>>>>>>>>>>>>>"
};
