/* XPM */
static char *_flsave_xpm[] = {
/* columns rows colors chars-per-pixel */
"16 16 17 1",
"  c black",
". c #0b0b0b",
"X c gray14",
"o c gray30",
"O c #585858",
"+ c #676767",
"@ c gray43",
"# c gray51",
"$ c #8e8e8e",
"% c #a7a7a7",
"& c gray67",
"* c gray70",
"= c gray74",
"- c gray76",
"; c gray83",
": c #f8f8f8",
"> c None",
/* pixels */
">>>>>>>>>>>>>>>>",
">XoOOOOOOOOOOoX ",
">o=::::::::::%+.",
">o=::::::::::%+.",
">o=::::::;;::%+ ",
">o=::::::::::%+ ",
">o=::::::::::=+.",
">o=:::::::::;*+.",
">o==-%&%$$%%%%+.",
">o*$&&&&&=%++#+.",
">O*$;;;:::;+##+.",
">O%$;O&:;:;+##+.",
">O*$-O@;;;;+##@.",
">O*$--;;;;-$###.",
">X$@&--&&&*@+$o ",
"> .... ..... .  "
};
