/* XPM */
static char *_opts_transport_xpm[] = {
/* columns rows colors chars-per-pixel */
"16 16 14 1",
"  c black",
". c gray16",
"X c #373737",
"o c gray23",
"O c #585858",
"+ c #6c6c6c",
"@ c gray49",
"# c gray51",
"$ c #a2a2a2",
"% c #aaaaaa",
"& c #b7b7b7",
"* c #dddddd",
"= c #e9e9e9",
"- c None",
/* pixels */
"----------o#+%%+",
"---------X#====o",
"----O$&@.-#===&o",
"--.O=====X%==&oo",
"%%+@=&&==&===%#+",
"%%%%%%&==%=====+",
"%@####$==&+%==%o",
"%+X$@@$&==&***oo",
"%%%%%#$&&&%==**+",
"$%%###$&&&+%=*%o",
"%oX##O&$$&X%*%o-",
"---@&&&$$O+**+o-",
"---.#$#OOo#*#X--",
"----.oOO-o#%o---",
"---------o%o----",
"---------o#o----"
};
