/* XPM */
static char *_panTasks_xpm[] = {
/* columns rows colors chars-per-pixel */
"48 48 30 1",
"  c black",
". c gray6",
"X c #161616",
"o c #1e1e1e",
"O c #272727",
"+ c gray18",
"@ c gray21",
"# c gray24",
"$ c gray27",
"% c gray30",
"& c #565656",
"* c #5b5b5b",
"= c #656565",
"- c #6c6c6c",
"; c #727272",
": c #7b7b7b",
"> c #848484",
", c #8e8e8e",
"< c #979797",
"1 c #9f9f9f",
"2 c #a7a7a7",
"3 c #afafaf",
"4 c #bbbbbb",
"5 c #cacaca",
"6 c LightGray",
"7 c gray86",
"8 c gray89",
"9 c gray92",
"0 c #fdfdfd",
"q c None",
/* pixels */
"qqqqqqqqqqqqqqqqqqqqqqqqqqqqqqqqqqqqqqqqqqqqqqqq",
"qqqqqqqqqqqqqqqqqqqqqqqqqqqqqqqqqqqqqqqqqqqqqqqq",
"qqqqqqqqqqqqqqqqqqqqqq,,,,,,<qqqqqqqqqqqqqqqqqqq",
"qqqqqqqqqqqqqq,,qqqqqq,<1<,>>>>>qqqqqqqqqqqqqqqq",
"qqqqqqqqqqqq,,,,,qqqq<,3885432<>qqqqqqqqqqqqqqqq",
"qqqqqqqqqqq,,<33,>qqq>,40000073- qqqqqqqqqqqqqqq",
"qqqqqqqqq,,,15983,>>>:270000093: qqqqqqqqqqqqqqq",
"qqqqqqqq,,<4790094,><,390000093:.qqqqqqqqqqqqqqq",
"qqqqqqq,>2499000094357700000093>oqqq>:>>qqqqqqqq",
"qqqqqqq<,3470990009900000000005,:>:>>>>>>qqqqqqq",
"qqqqqq>>1235909000000000000000072>>>155>::qqqqqq",
"qqqqqq,>34448909990900000000000094479004>:qqqqqq",
"qqqqqq>>344259900900000000000000000000093::qqqqq",
"qqqqqqq:>344790990090000000000000000000081::qqqq",
"qqq>>>:>>145999909909755678000000000000004>-qqqq",
"qqq>>1111148999999964444445580000000000062># qqq",
"qq:>1477877999999954444455545590000000052>%  qqq",
"qq>:248889899999963322223455556000000072>*.  qqq",
"q>>1348888999999731>>;;:><2455570000007<-.  qqqq",
"q:>23588888889995<-#X XX+*:<455690000002-X qqqqq",
"q:>33577888888994>#       @;,36670000004:#%qqqqq",
"q:>33446788888884>O qqqqqqqO;<4670000007,:---qqq",
"q:>34344458888884>Oqqqqqqqqq+;2570000000951:--;q",
"q:,34444447888885,$qqqqqqqqqq->47900000000071-$q",
"q:<334444478888871-.qqqqqqqqq-:27900000000002-.q",
"q;-><2244457788884>&qqqqqqqqq--2700000000009<*.q",
"qqX+*:>244477888872:--qqqqqqq--2900900000007>& q",
"qqq  X=1446778788872;---qqq-=-<7090000000007>$ q",
"qqqqq+*,4677777878874>-====-;279009000777774>@ q",
"qqqqq::25777777888888742,><25990900009555542;O q",
"qqqq;-<357777777787888988899999909099755553>*X q",
"qqqq-:234677777777788888999999909999734544<=X  q",
"qqq--<2424666655777888889899999990007<>>>>;@  qq",
"qqq-;234425655424677878889899999999984-&$$%  qqq",
"qqq-*:24225445443457778889899999999008<&     qqq",
"qqqq.&>24455443444477878787776679999994;+   qqqq",
"qqqqqX=,2442<<2444467777875554459999972>% qqqqqq",
"qqqqqqO;<2,>==>23456777777555444589764,=X qqqqqq",
"qqqqqqq@;;&@Xo%-,456777777554545455551;@  qqqqqq",
"qqqqqqq +O.    #:45556777321,24445553>%  qqqqqqq",
"qqqqqqqqq    qq%;45555555>-&&:24554<:*X  qqqqqqq",
"qqqqqqqqqqqqqqq&;35555552;@.X%:142>=#X  qqqqqqqq",
"qqqqqqqqqqqqqqq&-2454553>&.  X$;>;%O   qqqqqqqqq",
"qqqqqqqqqqqqqqq&=;>><231=O  qqX$&@X   qqqqqqqqqq",
"qqqqqqqqqqqqqqq&O@#%&=:;$  qqqq X   qqqqqqqqqqqq",
"qqqqqqqqqqqqqqqqq   Xo+@X  qqqqq   qqqqqqqqqqqqq",
"qqqqqqqqqqqqqqqqqq        qqqqqqqqqqqqqqqqqqqqqq",
"qqqqqqqqqqqqqqqqqqqqqqqqqqqqqqqqqqqqqqqqqqqqqqqq"
};
