/* XPM */
static char *btnEdit_xpm[] = {
/* columns rows colors chars-per-pixel */
"16 16 62 1",
"  c #000303",
". c #001d1d",
"X c #1b1b1b",
"o c #1e2121",
"O c #2b1d1d",
"+ c #371d1d",
"@ c #272626",
"# c #293333",
"$ c #382525",
"% c #373737",
"& c #3f4040",
"* c #491d1d",
"= c #510c0c",
"- c #551919",
"; c #472424",
": c #483737",
"> c #572929",
", c #7b0909",
"< c #772b2b",
"1 c #464646",
"2 c #555555",
"3 c #745e5e",
"4 c #646464",
"5 c #7a6666",
"6 c #777878",
"7 c #892121",
"8 c #9c2424",
"9 c #963535",
"0 c #a60f0f",
"q c #bc0c0c",
"w c #b61818",
"e c #a62424",
"r c #bb2525",
"t c #9c5c5c",
"y c #a75050",
"u c #b34b4b",
"i c #ba5454",
"p c #b96363",
"a c #c90f0f",
"s c #df0606",
"d c #ce2727",
"f c #dd2525",
"g c #f71616",
"h c #e43f3f",
"j c #ce5858",
"k c #d95b5b",
"l c #d46a6a",
"z c #f04e4e",
"x c #ff6868",
"c c #f47e7e",
"v c #8a8b8b",
"b c #989898",
"n c #abacac",
"m c #b6b7b7",
"M c #b4cccc",
"N c #c29090",
"B c #f5acac",
"V c #c7c8c8",
"C c #dadada",
"Z c #e4e5e5",
"A c #f6f6f6",
"S c None",
/* pixels */
"SSSSSSSSSX26#SSS",
"SSSSSSSSX2Ab@SSS",
"SSSSSSSS%CZ1SSSS",
"SSSSSSSXbAb@SSSS",
"SSSSSSS1ZC4S@&#&",
"SSOOSSXvAm142tn4",
"S$99@S$VZvvmVVv&",
"$u9d7*tmnvMmb2#S",
"yi ,gdNMv661#&SS",
"il;ws=5B3@@SSSSS",
">kzw-+jeOSSSSSSS",
"o*>O$lxw+SSSSSSS",
"SSSOpj<f0+SSSSSS",
"SSS:c<.8q+SSSSSS",
"SSS$lhwa*@SSSSSS",
"SSSo>rq-@SSSSSSS"
};
