/* XPM */
static char *opts_transport_xpm[] = {
/* columns rows colors chars-per-pixel */
"16 16 17 1",
"  c #040203",
". c #29272f",
"X c #502c31",
"o c #575763",
"O c #708189",
"+ c #9f1209",
"@ c #b5542c",
"# c #d56e19",
"$ c #8b7a89",
"% c #f49f11",
"& c #dea84a",
"* c #f9e661",
"= c #a2a1ab",
"- c #bfb2b8",
"; c #f8f197",
": c #eaeae4",
"> c None",
/* pixels */
">>>>>>>>>>+#@&&@",
">>>>>>>>>X#::::+",
">>>>o=-O.>#:::&+",
">>.o:::::X&::-++",
"%%@O;--::-;;;&#@",
"%%%%%&-::&*;;;;@",
"%#####=::-@&;;&+",
"%@X=OO=-::-***++",
"%%%%%$=---&;;**@",
"%%%##$=---@&**&+",
"%+X$$o-==-X&*&+>",
">>>O---==o@**@+>",
">>>.$=$ooX#*#X>>",
">>>>.Xoo>+#&X>>>",
">>>>>>>>>+&+>>>>",
">>>>>>>>>+#+>>>>"
};
