/* XPM */
static char *panService_xpm[] = {
/* columns rows colors chars-per-pixel */
"48 48 32 1",
". c #07332f",
"X c #06225a",
"o c #075222",
"O c #136f16",
"+ c #2d4d53",
"@ c #567266",
"# c #083995",
"$ c #2068c5",
"% c #53739b",
"& c #1f8f1d",
"* c #28af2b",
"= c #348e76",
"- c #32ca2d",
"; c #52b44e",
": c #62d35e",
"> c #3894f3",
", c #7c8ca4",
"< c #508bd1",
"1 c #74b1eb",
"2 c #ad6c2c",
"3 c #dd941c",
"4 c #edb113",
"5 c #c59561",
"6 c #f2ad46",
"7 c #fae105",
"8 c #93a5b3",
"9 c #b9b2b2",
"0 c #ace8a6",
"q c #b8cfe7",
"w c #cbc9a4",
"e c #f3f5f5",
"r c None",
/* pixels */
"rrrrrrrrrrrrrrrrrrrrrrrrrrrrrrrrrrrrrrrrrrrrrrrr",
"rrrrrrrrrrrrrrrrrrrrrrrrrrrrrrrrrrrrrrrrrrrrrrrr",
"rrrrrrrrrrrrrrrrrrrrrrrrrrrrrrrrrrrrrrrrrrrrrrrr",
"rrrrrrrrrrrrrrrrrrrrrrrrrrrrrrrrrrrrrrrr..rrrrrr",
"rrrrrrrrrrrrrrrrrrrrrrrrrrrrrrrrrrrrrrr.o++.rrrr",
"rrrrrrrrrrrrrrrrrrrrrrrrrrrrrrrrrrrrrrro;=@+.rrr",
"rrrrrrrrrrrrrrrrrrrrrrrrrrrrrrrrrrrrrro;0w=@+.rr",
"rrrrrrrrrrrrrrrrrrrrrrrrrrrrrrrrrrrrr.*00:*=@.rr",
"rrrrrrrrrrrrrrrrrrrrrrrrrrrrrrrrrrrr.*00:---O.rr",
"rrrrrrrrrrrrrrrrrrrrrrrrrrrrrrrrrrr.*00:---&.rrr",
"rrrrrrrrrrrrrrrrrrrrrrrrrrrrX####X.&00:---&.rrrr",
"rrrrrrrrrrrrrrrrrrrrrrrrrXX#+@,1<X&:00---*.rrrrr",
"rrrrrrrrrrrrrrrrrrrrrrrX#+247743+O:00---*.rrrrrr",
"rrrrrrrrrrrrrrrrrrrrXX#$,247777Oo:00---*orrrrrrr",
"rrrrrrrrrrrrrrrrrrX##<<188ww642o:00---*orrrrrrrr",
"rrrrrrrrrrrrrrrXX#$<1889eeeee,o:00--**orrrrrrrrr",
"rrrrrrrrrrrrrX##$1188qeeeeee9o:00;***o.rrrrrrrrr",
"rrrrrrrrrrXX#$<18,9eeeeeeeeqo;00;*&&oXXrrrrrrrrr",
"rrrrrrrrX##$<<<9qeeeeeeeeeqo*00;&&&o@$#rrrrrrrrr",
"rrrrrXX#+2,<8qeeeeeeeeeeee@&00;&&&o+11#Xrrrrrrrr",
"rrrX##@474%9eeeeeeeeeeeeeq+00;&OOo.<11<#rrrrrrrr",
"rrX#<5777,$9eeeeeeeeeeeee,@ewOOOo+q<111$Xrrrrrrr",
"rrX$14774<>%eeeeeeeeeeeee@9e0;Oo.8e8<11<#rrrrrrr",
"rrX<5477311$8eeeeeeeeeeeq+we0w@.,q9w%<<<#Xrrrrrr",
"rrX<6777,111%qeeeeeeeeee,+=w@+@899998%<<2#Xrrrrr",
"rrX$94731111<,eeeeeeeeee@++.@8999999w%$@3+#rrrrr",
"rrr#164511111%qeeeeeeeeq.+@89999999999%243#Xrrrr",
"rrrX$931111111%eeeeeeeeq9qq9999999999q,3442#rrrr",
"rrrr#<w1111111%8eeeeeeeeeeeeq99999999954442$Xrrr",
"rrrrX#qq11111q1%qeeeeeeeeeeeeeqq999qq93774<>#rrr",
"rrrrr#<eq11111q<,eeeeeeeeeeeeeeqqqqqq94776>1$Xrr",
"rrrrrr#qq11111q1%qeeeeeeeeeeeqqqqqqee6774,>1$Xrr",
"rrrrrrX$eq1111qq1%eeeeeeeeeeqqqqeeq9,345,>1>$Xrr",
"rrrrrrr#1e111qqqq%8eeeeeeeeqqeeeq8%<%@<>1><$#rrr",
"rrrrrrrX$eq11qqqq1%eeeeeeqeeeq9,<<>>>1>>$$#Xrrrr",
"rrrrrrrr#1w581qqqq<8eeeeeeeq8%<>>>>>><$##Xrrrrrr",
"rrrrrrrrX$q444651q1%qeeeq8,<>>>>>>>$$#Xrrrrrrrrr",
"rrrrrrrrr#>w4777465,%qq,<<>>>>>>$$##Xrrrrrrrrrrr",
"rrrrrrrrrX$q6477777732%>>>>>><$$#Xrrrrrrrrrrrrrr",
"rrrrrrrrrr#<e56477773@<>>>>$$##Xrrrrrrrrrrrrrrrr",
"rrrrrrrrrrr#qeq8555$>>>><$$#Xrrrrrrrrrrrrrrrrrrr",
"rrrrrrrrrrrX$eq1>>>>>>$$##.rrrrrrrrrrrrrrrrrrrrr",
"rrrrrrrrrrrr#1eq>>><$$#Xrrrrrrrrrrrrrrrrrrrrrrrr",
"rrrrrrrrrrrrX$11>$$#Xrrrrrrrrrrrrrrrrrrrrrrrrrrr",
"rrrrrrrrrrrrrX#$##Xrrrrrrrrrrrrrrrrrrrrrrrrrrrrr",
"rrrrrrrrrrrrrrrrrrrrrrrrrrrrrrrrrrrrrrrrrrrrrrrr",
"rrrrrrrrrrrrrrrrrrrrrrrrrrrrrrrrrrrrrrrrrrrrrrrr",
"rrrrrrrrrrrrrrrrrrrrrrrrrrrrrrrrrrrrrrrrrrrrrrrr"
};
