/* XPM */
static char *refresh_xpm[] = {
/* columns rows colors chars-per-pixel */
"16 16 16 1",
". c #0e241e",
"X c #323851",
"o c #155213",
"O c #244e8c",
"+ c #2ca014",
"@ c #47b121",
"# c #64c346",
"$ c #72d54c",
"% c #6197c7",
"& c #84d668",
"* c #92a2b4",
"= c #9eadc8",
"- c #b0cdf4",
"; c #d4e6fa",
": c #f6fcfc",
"> c None",
/* pixels */
">>>>>>>>>>>>>>>>",
">*====*=X>>>>>>>",
">=::::::-O>>>>>>",
">=::::::=%X.>>>>",
">=:;;;;;-=&o>>>>",
">=:;----**#.>>>>",
">=:;;;;=&#@.>>>>",
">*:---=*#@@o>>>>",
">*:;;-*@++@$$$o.",
">*:-%#@++@@@$$$@",
">*;;;+++++@@$$$$",
">*;--%o+++@@@@$$",
">*;;;;*o+@+...o$",
">.XXXX..o++.>>>o",
">>>>>>>>>o+.>>>>",
">>>>>>>>>>o.>>>>"
};
