/* XPM */
static char *tree_orange_xpm[] = {
/* columns rows colors chars-per-pixel */
"16 16 9 1",
"  c none",
". c #aa2d00",
"X c #c24c00",
"o c #ff4e00",
"O c #ff6b00",
"+ c #ff9600",
"@ c #ffb800",
"# c #ffd100",
"$ c #ffee00",
/* pixels */
"                ",
"      .o..      ",
"    XO#$$#o.    ",
"   X+$$$$$$+.   ",
"  .+$$$$$$$$+.  ",
"  X+#$$$$#$#+X  ",
" .O+@##$$$#@+O. ",
" X+++@#####+++o ",
" O@@@######@@@o ",
" X+@@#######@+. ",
"  O###$##$###O  ",
"  .+###$$###+.  ",
"   .+$$$$$#+.   ",
"    .o@$$@O.    ",
"      .oo.      ",
"                "
};
