/* XPM */
static char *tree_yell_xpm[] = {
/* columns rows colors chars-per-pixel */
"16 16 14 1",
"  c none",
". c #353524",
"X c #525212",
"o c #6e6e3f",
"O c #89892b",
"+ c #a4a40c",
"@ c #dede1d",
"# c #caca31",
"$ c #ffff33",
"% c #dcdc4f",
"& c #ffff51",
"* c #ffff95",
"= c #ffffb4",
"- c #ffffe5",
/* pixels */
"                ",
"      .o..      ",
"    XO*--*o.    ",
"   X%=-----%.   ",
"  .#==-----=%.  ",
"  X#*==--==*#X  ",
" .O+&*====*&+O. ",
" X+++&****&+++o ",
" O@@@$$$$$$@@@o ",
" X#@@$$&&$$$@#. ",
"  O$$$&&&&$$$O  ",
"  .%$$&&&&&$%.  ",
"   .%&&&&&&%.   ",
"    .o&&&&O.    ",
"      .oo.      ",
"                "
};
