/* XPM */
static char *_btnEdit_xpm[] = {
/* columns rows colors chars-per-pixel */
"16 16 28 1",
"  c black",
". c gray8",
"X c #1b1b1b",
"o c gray14",
"O c gray17",
"+ c #343434",
"@ c #3c3c3c",
"# c #444444",
"$ c gray29",
"% c gray33",
"& c #5a5a5a",
"* c #646464",
"= c #6c6c6c",
"- c #717171",
"; c gray48",
": c #818181",
"> c #8b8b8b",
", c #959595",
"< c gray60",
"1 c gray63",
"2 c #acacac",
"3 c #b7b7b7",
"4 c gray77",
"5 c #c8c8c8",
"6 c #dadada",
"7 c gray90",
"8 c #f6f6f6",
"9 c None",
/* pixels */
"999999999X%;+999",
"99999999X%8<o999",
"99999999+67#9999",
"9999999X<8<O9999",
"9999999#76*9o#O#",
"99Xo99X>83#*%-2*",
"9O%%o9O57>>355>@",
"O=%%#O=32>53,%+9",
"=- O&&<5>;;#+#99",
"->O$#o=4*oo99999",
"+:;$Oo;$o9999999",
"oO+oO>,#o9999999",
"999o;;#&@o999999",
"999@1#.$#o999999",
"999O>-#$Oo999999",
"999o+%#Oo9999999"
};
