/* XPM */
static char *_btnApply16_xpm[] = {
/* columns rows colors chars-per-pixel */
"16 16 21 1",
"  c black",
". c #444444",
"X c #4b4b4b",
"o c #515151",
"O c #5a5a5a",
"+ c #656565",
"@ c gray42",
"# c gray45",
"$ c #868686",
"% c #8b8b8b",
"& c #959595",
"* c gray61",
"= c #a4a4a4",
"- c #acacac",
"; c gray75",
": c #c5c5c5",
"> c #cacaca",
", c LightGray",
"< c gray87",
"1 c #e2e2e2",
"2 c None",
/* pixels */
"2222222222222222",
"2222222222222o@+",
"222222222222X#=#",
"2222222222Xo&>$X",
"oX2222222XO=,%X2",
"++X2222XX+:1%X22",
"@=OX22XX$:1%X222",
"X--XXXO=<<&XX222",
".#<=.@:<<*X.2222",
"XX-1=><,*X.22222",
"2.#,<,>=X.222222",
"2.X=>:=X.2222222",
"22.#;=O.22222222",
"22.o&+.222222222",
"222Xo.2222222222",
"2222222222222222"
};
