/* XPM */
static char *_btnAdd_xpm[] = {
/* columns rows colors chars-per-pixel */
"16 16 13 1",
"  c black",
". c #2c2c2c",
"X c #505050",
"o c #585858",
"O c gray42",
"+ c gray44",
"@ c gray50",
"# c gray51",
"$ c gray55",
"% c #aaaaaa",
"& c #e2e2e2",
"* c gray98",
"= c None",
/* pixels */
"====.XOOOOo.====",
"====X&****&O.===",
"===.#*$+#@*$.===",
"=...+*#XXo*@...=",
".X##$*#oo+*%O#o.",
"X&****+Xo+&***&o",
"O*$+#+oooo####*O",
"o*#XXXooooooo#*$",
"+*#XXXooo+ooo$*@",
"O*@+++oooo+++#*@",
"X&**&&+oo+&****o",
".o@@%*#oo+*%@$o.",
"=...o*#oo+*@...=",
"===.O*##+#*$.===",
"===.X&*****o.===",
"====.o@@@#o.===="
};
