/* XPM */
static char *_opts_global_xpm[] = {
/* columns rows colors chars-per-pixel */
"16 16 16 1",
"  c black",
". c #0e0e0e",
"X c gray18",
"o c #3e3e3e",
"O c #414141",
"+ c gray31",
"@ c gray36",
"# c DimGray",
"$ c #7e7e7e",
"% c gray54",
"& c #9a9a9a",
"* c #b6b6b6",
"= c gray81",
"- c gainsboro",
"; c #f1f1f1",
": c None",
/* pixels */
"::+#$$+X::::::::",
"::+*-=*@o:::::::",
"+@X@*=-*+:::::::",
"#*@X+*-;$X::::::",
"%-*+X&;;%X::::::",
"#==*&=;;%X::::::",
"X*--;;;;-#.:::::",
"X+*;;;--;;#.::::",
":XX#%$-;;;;#.:::",
":::...@;;;;;#.::",
"::::::.@;;;;;@.:",
":::::::.@;;;;;+.",
"::::::::.+-;=-;@",
":::::::::.+=--=O",
"::::::::::.+-=X.",
":::::::::::.+X.:"
};
