/* XPM */
static char *_opts_audit_xpm[] = {
/* columns rows colors chars-per-pixel */
"16 16 17 1",
"  c black",
". c #131313",
"X c gray16",
"o c #353535",
"O c #555555",
"+ c #5a5a5a",
"@ c #777777",
"# c gray51",
"$ c #9a9a9a",
"% c #a0a0a0",
"& c #aeaeae",
"* c #bcbcbc",
"= c #cbcbcb",
"- c #d5d5d5",
"; c #e7e7e7",
": c #fbfbfb",
"> c None",
/* pixels */
">>>>>>>>>>>>>>>>",
">>>O#*#+++>>>>>>",
"+@@####O*-@>>>>>",
"@;==#OO%:=&.>>>>",
"+-=:;;;::;%@>>>>",
"+-*;:::::;=&.>>>",
"o&*=::::;;;%o>>>",
"o+-*:::;;;;=@.>>",
">o&%;:;;;;;=%X>>",
">X&-=:;;;;;;=@>>",
">X@-%;;;;;;=$%X>",
">>X-%==*$$%%%-@>",
">>X&-%%&-----&o>",
">>>+----&@@oX.>>",
">>>X@@X..>>>>>>>",
">>>>>>>>>>>>>>>>"
};
