/* XPM */
static char *_opts_inventory_xpm[] = {
/* columns rows colors chars-per-pixel */
"16 16 13 1",
"  c black",
". c #1d1d1d",
"X c gray21",
"o c #5f5f5f",
"O c #6d6d6d",
"+ c gray63",
"@ c gray74",
"# c #c5c5c5",
"$ c #cbcbcb",
"% c gray86",
"& c gray89",
"* c #fefefe",
"= c None",
/* pixels */
"================",
"===++@@++=======",
"==+@%**%@+o=====",
"=o@%&*&&%@o=====",
"=+$$&&&&$$+ ====",
"=+$$$%$$$$+.====",
"=+$$$$$$$$+.====",
"=+$$$$$$$$+ ====",
"=o@&&$%&&@O=====",
"==o@&&&&@@OX====",
"===.o++O.O$#X===",
"====    =.O##X==",
"==========.O##X=",
"=========== O#O=",
"============ X.=",
"================"
};
