/* XPM */
static char *_pause_xpm[] = {
/* columns rows colors chars-per-pixel */
"16 16 15 1",
"  c black",
". c #2f2f2f",
"X c #484848",
"o c #5b5b5b",
"O c #727272",
"+ c #838383",
"@ c gray55",
"# c #9a9a9a",
"$ c #afafaf",
"% c #b2b2b2",
"& c gray74",
"* c #d2d2d2",
"= c gray87",
"- c gray96",
"; c None",
/* pixels */
"XOOOO.;;;;.OOOO.",
"o---*.;;;;.*---O",
"o***%.;;;;.%***O",
"o&&&#.;;;;.#&%%o",
"X###+.;;;;.+###o",
"X++@+.;;;;.o+@+X",
"X@+++.;;;;.++@+X",
"X+@@+.;;;;.+@@@X",
"X@@@+.;;;;.++++X",
"X+@++.;;;;.O++@X",
"X++@+.;;;;.+@@@X",
"X###+.;;;;.+###X",
"X%$$#.;;;;.#%%$o",
"o&&&%.;;;;.#&&$o",
"o===&.;;;;.*===o",
".+OOO.;;;;.oOOOX"
};
