/* XPM */
static char *_reload_xpm[] = {
/* columns rows colors chars-per-pixel */
"16 16 13 1",
"  c black",
". c gray13",
"X c #313131",
"o c #3c3c3c",
"O c #4b4b4b",
"+ c gray42",
"@ c #7e7e7e",
"# c #848484",
"$ c gray64",
"% c gray74",
"& c #c6c6c6",
"* c gray90",
"= c None",
/* pixels */
"========oooX====",
"=====ooooO&OX===",
"==oooOOOO@**@..=",
"=oO$&*&&&&&%*$XX",
"oO*&%&&&&&%$&&X.",
"o&$%&@@@@@&*$..=",
"O*%&oXX..O&+X.==",
"O@@OX=oXXX..XX..",
"oXXXXXooXX..O#@O",
"===o+&O.....&**+",
"=Xo@**@O+++&&%&.",
"XX$&$%&&&&&$%&+.",
"Xo$&$$$&&$&$$O.=",
"=XX@&*+OOOO...==",
"===.O$O.....====",
"====.X..========"
};
