/* XPM */
static char *opts_vulner_xpm[] = {
/* columns rows colors chars-per-pixel */
"16 16 17 1",
"  c #030202",
". c #300808",
"X c #222f2f",
"o c #540202",
"O c #6b0505",
"+ c #622b2b",
"@ c #725252",
"# c #900909",
"$ c #a41010",
"% c #a76262",
"& c #d00303",
"* c #f60808",
"= c #e82c2c",
"- c #f15d5d",
"; c #b69e9e",
": c #f29c9c",
"> c None",
/* pixels */
">>>>>>>>>>>>>>>>",
">>>>>o#$++.XX>>>",
">>>oo+:%@;;%@X>>",
">>o.X;:-@%::+>>>",
"o#O+%--**=-:$>>>",
"O&*=-=**=-+@=.>>",
"#******=--XX&o>>",
"o$****---%X+&.>>",
"..&*=X+---O&$X>>",
"oO&*+XX==**&..>>",
"o&&&&XO***&O>..>",
">o$&*&**&&o>>>>>",
">>.o####o..>>>>>",
">>>..>>>>>..>>>>",
">>..>>>>>..>>>>>",
">>>>>>>>>>>>>>>>"
};
