/* XPM */
static char *plugOpen_xpm[] = {
/* columns rows colors chars-per-pixel */
"16 16 16 1",
". c #2c2c2d",
"X c #404a63",
"o c #0046b4",
"O c #2f5a8d",
"+ c #1271fa",
"@ c #5e71a4",
"# c #678abb",
"$ c #69a6f3",
"% c #8b76b1",
"& c #9598a4",
"* c #99b5df",
"= c #a8d0fe",
"- c #e9c9b4",
"; c #d2d8e1",
": c #fbfafb",
"> c None",
/* pixels */
">ooooo>>>>>>>>>>",
"o:::::o>>>>>>>>>",
"o;;;:;:ooooo>>>>",
"o======:::::o>>>",
"o=$+++++++++++>>",
"o=+:::::::::::+>",
"o$+=;*======+=+>",
"o$+==**==#&@@$+>",
"o$+=**#*#;;;@#+>",
"o++***@&;;-;&O+>",
"o++$##;::---&X+>",
"o++@;:::::;;XO+>",
">o+*&%:::;&X.o>>",
">>>;&%;;&X>>>>>>",
">>>&;;;X>>>>>>>>",
">>>.&&@>>>>>>>>>"
};
