/* XPM */
static char *_btnStop_xpm[] = {
/* columns rows colors chars-per-pixel */
"16 16 20 1",
"  c black",
". c #191919",
"X c gray15",
"o c #2c2c2c",
"O c gray20",
"+ c gray26",
"@ c #4b4b4b",
"# c gray37",
"$ c gray42",
"% c gray44",
"& c #848484",
"* c gray56",
"= c gray59",
"- c gray63",
"; c #aeaeae",
": c gray75",
"> c gray78",
", c #dadada",
"< c gray97",
"1 c None",
/* pixels */
"1111XX#&%@XX1111",
"111X-,<<<<,=X111",
"11@>,,,,,,>,;X11",
"1X>,,,>>>;;;;=X1",
"X&>>->&;;&:=&$O.",
".;==:<<$$<<-@@+.",
"@;===<<<<<,+@@+o",
"@=&&&=<<<,+@@@+o",
"@&&&&%<<<<#@+@+X",
"@&$$%<<,<<<#@++X",
"X&$$-<,#$<<-@+O.",
"1@$@+*+++#&+++X1",
"1X$@@@@@@@+++O.1",
"11.O@@@@@+++O.11",
"111.o+++++OX.111",
"11111..XX..11111"
};
