/* XPM */
static char *_filter_xpm[] = {
/* columns rows colors chars-per-pixel */
"16 16 15 1",
"  c black",
". c gray5",
"X c #232323",
"o c gray16",
"O c gray27",
"+ c gray33",
"@ c #676767",
"# c gray43",
"$ c gray52",
"% c gray54",
"& c #929292",
"* c gray61",
"= c gray71",
"- c #cdcdcd",
"; c None",
/* pixels */
";;;;;;;;;;;;;;;;",
";;; ;;   ;;;;;;;",
";  ..XXXo.  . ;;",
".X#&-------&@.  ",
"o%&----------&. ",
"o+&&&&&&&&&&&#. ",
";X#=&&@@@@#&&o ;",
";;X+=======$o ;;",
";;;XX**$***# ;;;",
";;;;;X$****X ;;;",
";;;;;;X==*$o ;;;",
";;;;;;.%***X ;;;",
";;;;;;.%===o ;;;",
";;;;;; O*&@ ;;;;",
";;;;;;;;;;;;;;;;",
";;;;;;;;;;;;;;;;"
};
