/* XPM */
static char *_panReports_xpm[] = {
/* columns rows colors chars-per-pixel */
"48 48 27 1",
"  c black",
". c #151515",
"X c #191919",
"o c #2d2d2d",
"O c #343434",
"+ c #3e3e3e",
"@ c gray26",
"# c #4c4c4c",
"$ c gray36",
"% c #6c6c6c",
"& c #727272",
"* c gray49",
"= c gray55",
"- c gray61",
"; c #a2a2a2",
": c gray68",
"> c gray71",
", c #bcbcbc",
"< c gray78",
"1 c #cecece",
"2 c LightGray",
"3 c #dadada",
"4 c #e1e1e1",
"5 c #ececec",
"6 c #f6f6f6",
"7 c white",
"8 c None",
/* pixels */
"888888888888888888888888888888888888888888888888",
"888888888888888888888888888888888888888888888888",
"888888888888888888888888888888888888888888888888",
"8888888888888888888888888888XXO 8888888888888888",
"888888888888888888888888888XX=;#XX88888888888888",
"88888*&&&%&&&&&%&&%&&&&%*&@#>3>;&O$&*&&&&%888888",
"8888%*&-*--**-***-*-*---$$;33,;;;=$@*-*-*%.88888",
"8888&%-<444443443444344&$3322<>;---&#:31>*$ 8888",
"8888&&>3777777777767773+36332,>;;;-;$$65<*$ 8888",
"8888&%>3666666666666662#;>322,>;-;-$$#15<*$ 8888",
"8888&&>3666666666666662+--;23,>>;*$$$#65<-$ 8888",
"8888%%>3665556556565553#----,,,;&$$$$#35<-$ 8888",
"8888&&>2555555555555552#----;;-$$%$$$#34<*$ 8888",
"8888&%>2555555555555552#;;---;&$$$$$$#24<-$ 8888",
"8888&&>255555555555553:$;----;&$$$$$$#33<*$ 8888",
"8888%&>2343434343443:*$$;----;*$$$$$%#13<*$ 8888",
"8888%%>145344443444:*-=$---;-;&$$$$%$#13<%$ 8888",
"8888%%><3333333311**11=$;;----*$$$$$#@%3<-$ 8888",
"8888%%><23<32321-*=111=$--;;;;&$$$$X#-$#-*$ 8888",
"8888%%><<233332**331<<=$;;;--;$$$O#=---=@#$ 8888",
"8888%%><><<2222*:1211<=$------&$$$-:-----$o.8888",
"8888%%-<>>>>>>2*--1<11=$;-;--;$#=>:----==-=#O 88",
"8888%%-23>>>>>>*----:1=$;----;#=:::>-------=o 88",
"8888%%->>>>>>>>*------=&;----;@%*::::----=%@o 88",
"8888&%-><>-%&&$$$=*---=$;---;;#%**-:----=@@@o 88",
"8888%$->&$%%=>:>&&$$=-*$;--;--$%*%%*-:-%@@@@o 88",
"8888&$&$=-=*>333113:O$#$;-;;;;#%=**%*=%+@@@@o 88",
"8888$$-:==**=3<1111#&=$#$;;--;@%*****%++++@@o 88",
"888+$-:-==***>333<$$-==*##=;;;#%****=%+@+++@o 88",
"888+->---==***333=$-;===;##;;-@%*=%**%+++++@o 88",
"88++:----=****23&$--==-=*=#=;;#%*%***%+++++@o 88",
"88O####$&$**=%-:#=-=-===&-$#--#%*****%+++++@o 88",
"88O=2>;=$$####%#=;=:=======O=;@%=****%+++++@o 88",
"88O;<,>,,,;;=$$=;:=======-=O=;#***%*=%+++++@o 88",
"88O=,,>>>;>>;:;;;=:========O$-#%*****%+++++@o 88",
"88O=,,,>>>;;;;;;;=;========X&&#%*%***%+++++@o 88",
"88O$,,,>>>>>;;;;=;=;;===*;$O-1$@=*=**%+++@@++ 88",
"88X$;,>>>>;;;::;:;=====&-=OX>1>&o%***%++@+o.  88",
"88XO&;>>>>>;;:;;;=;====-=#O&>>>2-@#**%++++. 8888",
"888X#==>>>>;;;;;;:=-=--=$OX>1>2>>1*@%*+oOOO 8888",
"888XX#$==>>>;;;;;;;;;=$$O.$--------*O#O+$$X 8888",
"8888XXO$$&=;;;;;;-=&$#OO.$$$#$$$@$$$$O+$$O  8888",
"888888XX#$$$&$$$$$$$#OXX..............X.   88888",
"8888888..X.O#+#$+OOXXX  888888888888888888888888",
"8888888888  XXXXXX   888888888888888888888888888",
"888888888888888888888888888888888888888888888888",
"888888888888888888888888888888888888888888888888",
"888888888888888888888888888888888888888888888888"
};
