/* XPM */
static char *flstatus_xpm[] = {
/* columns rows colors chars-per-pixel */
"16 16 16 1",
". c #2e2626",
"X c #5c0c0a",
"o c #625e62",
"O c #1179ae",
"+ c #079ae2",
"@ c #3fade1",
"# c #a60304",
"$ c #ba6625",
"% c #db0403",
"& c #d37504",
"* c #f6920e",
"= c #ffbd67",
"- c #a8a6a3",
"; c gray82",
": c white",
"> c None",
/* pixels */
">>>>>>>>>>>>>>>>",
">>>>>>>>>>>>>>>>",
">>>&***++++>>>>>",
">>&****++++O>>>>",
">&****=@+++O@>>>",
">****==@@+++O>>>",
">&***=;;@+++O>>>",
">&***==@@+++O>>>",
">&&*&=$$@+++O>>>",
">&&&%%%%%o++O>>>",
">&$%%%%%%%$oO>>>",
">X#%%%%%%%##>>>>",
">>X##%#%%##>>>>>",
">>>>X####X>>>>>>",
">>>>>>>>>>>>>>>>",
">>>>>>>>>>>>>>>>",
};
