/* XPM */
static char *opts_inventory_xpm[] = {
/* columns rows colors chars-per-pixel */
"16 16 17 1",
"  c #030202",
". c #2e1614",
"X c #550200",
"o c #605f5f",
"O c #7f8080",
"+ c #a10903",
"@ c #ba5423",
"# c #ffc735",
"$ c #f2c148",
"% c #9fa2a4",
"& c #b7bec5",
"* c #abd3f9",
"= c #e5cc8a",
"- c #cadff3",
"; c #cfe8fd",
": c #fefeff",
"> c None",
/* pixels */
">>>>>>>>>>>>>>>>",
">>>%%&&%%>>>>>>>",
">>%&-::-&%o>>>>>",
">o&-;:;;-&o>>>>>",
">%**;;;;**% >>>>",
">%***-****%.>>>>",
">%********%.>>>>",
">%********% >>>>",
">o&;;*-;;&o>>>>>",
">>o&;;;;&&O+>>>>",
">>>.o%%o.o=#+>>>",
">>>>    >X@#$+>>",
">>>>>>>>>>.@#$+>",
">>>>>>>>>>> @#@>",
">>>>>>>>>>>> +.>",
">>>>>>>>>>>>>>>>"
};
