/* XPM */
static char *opts_global_xpm[] = {
/* columns rows colors chars-per-pixel */
"16 16 16 1",
"  c #0e0e0d",
". c #2e2e2d",
"X c #3e3e41",
"o c #41413f",
"O c #4f4f52",
"+ c #5b5b61",
"@ c #68686e",
"# c #7d7d86",
"$ c #898992",
"% c #9999a2",
"& c #afafbd",
"* c #b5b5c3",
"= c #cdcddb",
"- c #dbdbe8",
"; c #f0f0f5",
": c None",
/* pixels */
"::O@##O.::::::::",
"::O*-=*+X:::::::",
"O+.+*=-*O:::::::",
"@*+.O*-;#.::::::",
"$-*O.%;;$.::::::",
"@==*%=;;$.::::::",
".&--;;;;-@ :::::",
".O*;;;--;;@ ::::",
":..@$#-;;;;@ :::",
":::   +;;;;;@ ::",
":::::: +;;;;;+ :",
"::::::: +;;;;;O ",
":::::::: O-;=-;+",
"::::::::: O=--=o",
":::::::::: O-=. ",
"::::::::::: O. :"
};
