/* XPM */
static const char *iweStorage_xpm[] = {
/* columns rows colors chars-per-pixel */
"16 16 16 1",
". c #2c1c0e",
"X c #573d21",
"o c #a65e07",
"O c #a57836",
"+ c #a88a50",
"@ c #e4a733",
"# c #dcaf5c",
"$ c #ffcc36",
"% c #feda5b",
"& c #fcd571",
"* c #d0bc95",
"= c #fae49d",
"- c #feef93",
"; c #fef9c9",
": c #fffffc",
"> c None",
/* pixels */
">>>>>>>>>>>>>>>>",
">>>>>oo@@oo>>>>>",
">>ooo#====#OoX>>",
">o@#===##*==##o>",
">@===&&##&&-=-#>",
">#&%%&=&%--&$$@>",
">#=%$@@$&$$$$%@>",
">#=&%$@$%$$$%%$>",
">#;=&&$$%$%%%&%>",
">#;==&%%&%%%%&%>",
">*;;==&%-%&&--&>",
">#:;;=---&----&>",
">+;::;--------+>",
">..X*;;=;--&+X>>",
">>>>>.+*=+X.>>>>",
">>>>>>>>.>>>>>>>"
};
