/* XPM */
static char *nmap_xpm[] = {
/* columns rows colors chars-per-pixel */
"16 16 17 1",
"  c #282828",
". c #585b5e",
"X c #0482fc",
"o c #1a8cfc",
"O c #3496fc",
"+ c #54a7f7",
"@ c #65acee",
"# c #959ea9",
"$ c #99b2ce",
"% c #84b6e4",
"& c #a5bad2",
"* c #afc6da",
"= c #add1f1",
"- c #afdffc",
"; c #c4d7e9",
": c #d3e5ef",
"> c None",
/* pixels */
">>>>>>>>>>>>>>>>",
">>>>>>>>>>>>>>>>",
">>>>+=::::@o>>>>",
">>>@-::**:-=o>>>",
">>@=*$&.#&&**O>>",
">%=*#&&.#=##==o>",
"@-*=#&$ .*#*&-*o",
"=**-*$$ .=&*-&-@",
"*&&=&&*#$$**=&&@",
"o+&&&;&$=&;$*@O>",
">>>+;=*$&=-%o>>>",
">>>>o=---=@>>>>>",
">>>>>o+==+>>>>>>",
">>>>>>>>>>>>>>>>",
">>>>>>>>>>>>>>>>",
">>>>>>>>>>>>>>>>"
};
