/* XPM */
static const char* jscripter_xpm[] = {
"16 16 13 1",
" 	c None",
".	c #333366",
"+	c #FFFFFF",
"@	c #666699",
"#	c #9999CC",
"$	c #003366",
"%	c #CCCCCC",
"&	c #999999",
"*	c #000033",
"=	c #CCCCFF",
"-	c #336699",
";	c #99CCFF",
">	c #666666",
"      ###       ",
"    @######@    ",
"   @#########   ",
"  @####%+@####  ",
" .@@#%%++%%&@@@ ",
" .--&++++++%@@@ ",
"@...&+%..&+%$..*",
"@..&++...$%+%..$",
"@**&++...$%+%***",
"@..*&+%$$&+%*$*@",
" $$$&++++++%$$. ",
" $$.@%&++%&>..$ ",
"  $...@&%@@..$  ",
"   $@@@@@@@-.   ",
"    $@@@@@@-    ",
"      @@@@      "};
