/* XPM */
static char *wot[] = {
/* columns rows colors chars-per-pixel */
"16 16 33 1",
"  c #040304",
". c #101406",
"X c #192e11",
"o c #2c3214",
"O c #313124",
"+ c #1c460c",
"@ c #345406",
"# c #3a6f08",
"$ c #443624",
"% c #4c7604",
"& c #64765c",
"* c #3c8b0f",
"= c #4b9207",
"- c #4c9524",
"; c #55ae08",
": c #649f24",
"> c #67ba04",
", c #779d59",
"< c #67c805",
"1 c #74c224",
"2 c #844604",
"3 c #9c8e1c",
"4 c #a0a278",
"5 c #88cc38",
"6 c #b4d61c",
"7 c #a0d662",
"8 c #fc8e0c",
"9 c #fcee34",
"0 c #bce684",
"q c #c4dea4",
"w c #fcfebc",
"e c #fcfefc",
"r c None",
/* pixels */
"2o.8rr8OoOrrrrrr",
"O3r949,5557, rrr",
" rwew:=;;;;;5.rr",
"89eee98%;<<;;1.r",
"Oqwew=;@o@#;<;-r",
"$9,9=6rrrr@@=>- ",
"84>8>o2rrr.@#;;X",
"&0<%<.r$rr @@=;@",
",7<;<X rrr.@##>-",
"O0<;<@ rr @@#%;#",
"r7<;;<@..@@@#=:r",
"r+1<;=;;*###*;-r",
"rr*-;;**###*=-rr",
"rrr#****#***-rrr",
"rrrr.#*****+rrrr",
"rrrrrrrrrrrrrrrr"
};
