/* XPM */
static const char * jscript_xpm[] = {
"16 16 7 1",
" 	c None",
".	c #808080",
"+	c #FFFF00",
"@	c #FFFFFF",
"#	c #C0C0C0",
"$	c #000000",
"%	c #808000",
"                ",
"      .....     ",
"     .+@+@#$    ",
"    .@%%%#$.$   ",
"   .@@+@#$.#$   ",
"   .@%%%$$$$    ",
"   .+@+@#$      ",
"    .+%%%#$     ",
"     .+@+@#$    ",
"    ...$%%@#$   ",
"   .@#$.$@+#$   ",
"  .@+$.+@+#$    ",
"   .##.$##$     ",
"    $$$$$$      ",
"                ",
"                "};
