/* XPM */
static char * jscript_xpm[] = {
"16 16 17 1",
" 	c None",
".	c #040300",
"+	c #2C0707",
"@	c #4C2414",
"#	c #342B28",
"$	c #3C3113",
"%	c #574A47",
"&	c #814E31",
"*	c #7B6155",
"=	c #70686A",
"-	c #8B8588",
";	c #9E8473",
">	c #C296A6",
",	c #B0A6AA",
"'	c #C8C5C3",
")	c #F7C2BB",
"!	c #FDF5F2",
"        ''==-   ",
"       ##%%-..  ",
"   =,'%.,,==-.. ",
"' #=..*#--,'-*.'",
"#..*!=@.%=;....'",
",.*;.#@=-;@-    ",
" '...%%#.+&=    ",
" =.%*.!..+++    ",
" ,.**.!.*+%*. % ",
" =+&%.);#%=,!-. ",
"  ..$.,)*%*==#. ",
"   ...,!$))!'!,'",
"     %=>.-'$.%>-",
"      .*!!,%,!==",
"       =%%=-=.- ",
"        -=-,'   "};
