/* XPM */
static char *_refresh_xpm[] = {
/* columns rows colors chars-per-pixel */
"16 16 16 1",
". c #0b0b0b",
"X c gray9",
"o c gray16",
"O c #353535",
"+ c gray32",
"@ c #686868",
"# c #777777",
"$ c #868686",
"% c #989898",
"& c gray66",
"* c #b7b7b7",
"= c #cbcbcb",
"- c #dadada",
"; c gray91",
": c #fbfbfb",
"> c None",
/* pixels */
">>>>>>>>>>>>>>>>",
">%*&&&&&+.>>>>>>",
">*::::::&+.>>>>>",
">&::::::&$OX>>>>",
">&:;;----*&O>>>>",
">&:-====&%%X>>>>",
">&:;;-;*%&#X>>>>",
">&:===&$%$$oX.>>",
">&:;;=*$##$%&%+.",
">%;=&$$#@#$%%*=@",
">%;;;@+@##$$%&**",
">%:==#O+##$##$&*",
">%;;;;%O@##X.X+%",
">oOOOoOXo#@.>>>O",
">>>>>>>>.O@X>>>.",
">>>>>>>>>>OX>>>>"
};
