/* XPM */
static char *_start_xpm[] = {
/* columns rows colors chars-per-pixel */
"16 16 15 1",
"  c black",
". c #222222",
"X c #2c2c2c",
"o c gray30",
"O c #5f5f5f",
"+ c #656565",
"@ c gray43",
"# c #727272",
"$ c #868686",
"% c #9a9a9a",
"& c #aeaeae",
"* c gray72",
"= c #cacaca",
"- c #f9f9f9",
"; c None",
/* pixels */
";;;;;;;;;;;;;;;;",
"XX.;;XXXX;;;;;;;",
"@&o.;X@@..;;;;;;",
"@-=@..@-&o.;;;;;",
"@===%XO==&+.X;;;",
"@=%%=&O#**=%XX;;",
"o%%%$%%+o#%*%oXX",
"O%$$$$$%$o+$$%+X",
"o%$$$$$$$o+$$$+X",
"o%$%$%$+o+%$$oXX",
"O%%%%%OO%%*$XXX;",
"O***$Xo**%OXX;;;",
"O=*OX.+=%oX;;;;;",
"O*oX;XO$.X;;;;;;",
"oX.;;XXX.;;;;;;;",
";;;;;;;;;;;;;;;;"
};
