/* XPM */
static char *_tree_yes_xpm[] = {
/* columns rows colors chars-per-pixel */
"16 16 16 1",
"  c black",
". c gray13",
"X c gray19",
"o c #3f3f3f",
"O c gray30",
"+ c gray37",
"@ c gray43",
"# c gray46",
"$ c gray48",
"% c #959595",
"& c #a7a7a7",
"* c #b6b6b6",
"= c gray75",
"- c #d0d0d0",
"; c #eeeeee",
": c None",
/* pixels */
"::::::::::::::::",
"::::::.o..::::::",
"::::XO*;;*o.::::",
":::X#-;;;;;#.:::",
"::.@--;;;;;-#.::",
"::X@*--;;--*@X::",
":.O+%*----*%+O.:",
":X+++%****%+++o:",
":O$$$%%%%%%$$$o:",
":X#$$%%&&%%%$#.:",
"::O%%%&&&&%%%O::",
"::.#%%&==&&%#.::",
":::.#&====&#.:::",
"::::.o%==%O.::::",
"::::::.oo.::::::",
"::::::::::::::::"
};
