/* XPM */
static char *btnApply16_xpm[] = {
/* columns rows colors chars-per-pixel */
"16 16 56 1",
"  c #175b3d",
". c #017f0e",
"X c #06791a",
"o c #0d6b2a",
"O c #0c7324",
"+ c #126c2d",
"@ c #1a6538",
"# c #127329",
"$ c #1e5649",
"% c #1d6f40",
"& c #294c59",
"* c #205847",
"= c #265251",
"- c #2d4762",
"; c #304f60",
": c #216744",
"> c #2b7349",
", c #316558",
"< c #397c4f",
"1 c #018708",
"2 c #088116",
"3 c #0b9018",
"4 c #168428",
"5 c #1b9625",
"6 c #10a50d",
"7 c #2c9635",
"8 c #24ac1b",
"9 c #3ab32b",
"0 c #3c9443",
"q c #47be2f",
"w c #47b637",
"e c #53bb3f",
"r c #459a4a",
"t c #5ac43f",
"y c #5dc044",
"u c #69c64d",
"i c #6dcb51",
"p c #68d643",
"a c #75cc58",
"s c #74d24c",
"d c #82ce6c",
"f c #94e959",
"g c #98e36c",
"h c #a4f55b",
"j c #a3e86d",
"k c #aae97a",
"l c #b9f76a",
"z c #b8f27c",
"x c #c6fb7b",
"c c #d2ff69",
"v c #d0ff72",
"b c #b7ed8a",
"n c #c9f795",
"m c #d1faa1",
"M c white",
"N c None",
/* pixels */
"NNNNNNNNNNNNNNNN",
"NNNNNNNNNNNNN166",
"NNNNNNNNNNNN18p8",
"NNNNNNNNNN.1th91",
"2XNNNNNNNX3plq.N",
"55XNNNNOX5fcq.NN",
"7p4ONNOXwjveXNNN",
"#ddX++4ixxyOONNN",
"o0nao7gnxu+oNNNN",
"@@dmaknzu@ NNNNN",
"N 0bnbks% NNNNNN",
"N$:akji:$NNNNNNN",
"NN=rfs>&NNNNNNNN",
"NN&,t<&NNNNNNNNN",
"NNN;,-NNNNNNNNNN",
"NNNNNNNNNNNNNNNN"
};
