/* XPM */
static char *btnAdd[] = {
/* columns rows colors chars-per-pixel */
"16 16 16 1",
"  c #193977421ABD",
". c #38176EBD4749",
"X c #4D667EF85750",
"o c #01AB41A80FB4",
"O c #0D3D8DA50D3D",
"+ c #33069D5132E7",
"@ c #495DA9464921",
"# c #5E01970264F1",
"$ c #519FAE1E5102",
"% c #F95AFD33F955",
"& c #D8A5EA50D972",
"* c #9918B7779EDE",
"= c #00524C65074F",
"- c None",
"; c #000049DE0A46",
": c #72729C1B8181",
/* pixels */
"----= XXXX.=----",
"---- &%%%%&X;---",
"---;@%:+@#%:=---",
"-;==+%@  O%#=;;-",
"= #@:%@OO+%*X#.=",
" &%%%%+ O+&%%%&.",
"X%:+@+OOOO@@@#%X",
".%@   OOOOOOO@%:",
"+%@   OOO+OOO$%#",
"X%#+++OOOO+++$%#",
" &%%&&+OO+&%%%%.",
"=.##*%@OO+%*#:.o",
"-;==.%@OO+%#o;;-",
"---;X%#@+$%:=---",
"---; &%%%%%.;---",
"----=.####.o----"
};
