/* XPM */
static char *btnCopy_xpm[] = {
/* columns rows colors chars-per-pixel */
"16 16 17 1",
"  c #070506",
". c #06330f",
"X c gray18",
"o c #0a5c0c",
"O c #3e4c42",
"+ c #626363",
"@ c #25a225",
"# c #49934a",
"$ c #7b9c88",
"% c #807f7f",
"& c #969b98",
"* c #abacab",
"= c #a4cfa7",
"- c #bfd6c4",
"; c #d2d6d2",
": c #f6f6f6",
"> c None",
/* pixels */
">>>O+*&**&*&&**+",
">>>X;::::::::::*",
">>>X-::::::::::*",
">>>X-::::::::::*",
">>>.*::&*::::::&",
">>> *::++::*%*:&",
">>>.-:*+O;:&+O:&",
">>o.&;%*++:%+O;&",
">o#=-$O;%X*++X;&",
"oo==#-&*;;;;;;;&",
"#=-@@=-&*::;:::%",
"==@@@@@=&:::;::&",
"==@@@@@=+&&&&&&O",
"@=-@o=*$.       ",
"oo==#-O.>>>>>>>>",
">o@==$o>>>>>>>>>"
};
