/* XPM */
static char *btnStop_xpm[] = {
/* columns rows colors chars-per-pixel */
"16 16 23 1",
". c #540000",
"X c #700606",
"o c #840606",
"O c #933232",
"+ c #ac0000",
"@ c #b23737",
"# c #994040",
"$ c #bc5050",
"% c #b86969",
"& c #d20505",
"* c #ce2f2f",
"= c #f20303",
"- c #f92f2f",
"; c #cd7575",
": c #fc5252",
"> c #f56d6d",
", c #c59191",
"< c #d5b5b5",
"1 c #fa8e8e",
"2 c #f9b1b1",
"3 c #f7cece",
"4 c #fbf6f6",
"5 c None",
/* pixels */
"5555XX#%%OXX5555",
"555X,344443;X555",
"55O<333333231X55",
"5X23332221111>X5",
"X%22,<%11%<>:-+.",
".1>><44$$44,==&.",
"O1>>>444443&==&o",
"O>:::>4443&===&o",
"O::::$4444@===&X",
"O:--$443444@=&&X",
"X:--,43**44,=&+.",
"5O-=&;&==*%&&&o5",
"5X*=======&&&+.5",
"55.+=====&&&+.55",
"555.o&&&&&+X.555",
"55555..XX..55555"
};
