/* XPM */
static char *opts_audit_xpm[] = {
/* columns rows colors chars-per-pixel */
"16 16 17 1",
"  c #040000",
". c #310700",
"X c #2e6b47",
"o c #6d0e01",
"O c #4aa94a",
"+ c #78a3c1",
"@ c #911101",
"# c #dc2804",
"$ c #c75e24",
"% c #e8a448",
"& c #fdd85d",
"* c #a69e9b",
"= c #b9bebb",
"- c #b3d0f4",
"; c #daebf8",
": c #f9fcff",
"> c None",
/* pixels */
">>>>>>>>>>>>>>>>",
">>>XO=O###>>>>>>",
"#$$OOOOX=&$>>>>>",
"$;--OXX*:-%.>>>>",
"#&-:;;;::;*$>>>>",
"#&=;:::::;-%.>>>",
"@%=-::::;;;*@>>>",
"@#&=:::;;;;-$.>>",
">@%*;:;;;;;-*o>>",
">o%&-:;;;;;;-$ >",
">o$&*;;;;;;-+*o>",
">>o&*--=++***&$>",
">>o%&**%&&&&&%@>",
">>>#&&&&%$$@o. >",
">>>o$$o..  >>>>>",
">>>>>>>>>>>>>>>>"
};
