/* XPM */
static char *panSettings[] = {
/* columns rows colors chars-per-pixel */
"48 48 64 1",
". c #18110e",
"X c #29180f",
"o c #372213",
"O c #2e2d2e",
"+ c #503a2e",
"@ c #720707",
"# c #61231e",
"$ c #723d42",
"% c #594b37",
"& c #74451e",
"* c #6b4629",
"= c #565655",
"- c #5f6164",
"; c #695750",
": c #6d6453",
"> c #6b6b6e",
", c #1c71d7",
"< c #7d7d84",
"1 c #7e8b96",
"2 c #4c95e3",
"3 c #90100d",
"4 c #b0120a",
"5 c #ad2e26",
"6 c #956130",
"7 c #95715d",
"8 c #ce1907",
"9 c #db2e19",
"0 c #d34a39",
"q c #d55f55",
"w c #e95743",
"e c #e87162",
"r c #ad8a37",
"t c #928873",
"y c #af8f55",
"u c #ffb92f",
"i c #ceb172",
"p c #e3936f",
"a c #fde02e",
"s c #f0cc77",
"d c #f6e056",
"f c #909094",
"g c #999aa4",
"h c #aaa394",
"j c #acacb1",
"k c #b4b4c6",
"l c #b8ddff",
"z c #cbaf99",
"x c #e68d84",
"c c #f3a59b",
"v c #efb2ad",
"b c #d3c8aa",
"n c #f3d690",
"m c #f3d3af",
"M c #fee295",
"N c #fce6aa",
"B c #fae7b8",
"V c #fff3b5",
"C c #cccbd2",
"Z c #d8d9e5",
"A c #f4d1cb",
"S c #fdefd0",
"D c #f5eee9",
"F c #fffefe",
"G c None",
/* pixels */
"GGGGGGGGGGGGGGGGGGGGGGGGGGGGGGGGGGGGGGGGGGGGGGGG",
"GGGGGGGGGGGGGGGGGGGGGGGGGGGGGGGGGGGGGGGGGGGGGGGG",
"GGGGGGGGGGGGGGGGGGG-==GGGGGGGGGGGGGGGGGGGG-==OGG",
"GGGGGGGGGGGGGGGGGGG-<-OGGGGGGGGGGGGGGGGG-=>jj=OG",
"GGGGGGGGGGGGGGGGGG=>DC=OGGGGGGGGGGGGGGG=>kDZk<OG",
"GGGGGGGGGGGGGGGGGGG=jFk-OGGGGGGGGGGGGG-jDFCkg=.G",
"GGGGGGGGGGGGGGGGGG=>CFZ>XGGGGGGGGGGGG=fFZZCj-OGG",
"GGGGGGGGGGGGGGGGG=>ZFC-.GGGGGGGGGGGGG=jFDZCfOGGG",
"GGGGGGGGGGGGGGGG=>ZFk>OOOGGGGGGGGGGGG=kDZZk>.GGG",
"GGGGGGGGGGGGGGG=<ZFCfh=t=OGGGGGGGGGG=fZkg1<OGGGG",
"GGGGGGGGGGGGGG=<ZFkfj-iVb=OGGGGGGGG=fZk=OOOGGGGG",
"GGGGGGGGGGGGG=fZFjfj-iVSVn=OGGGGGG=gZj=.GGGGGGGG",
"GGGGGGGGGGGG-fZFjfj:iVSVSSn:OGGGG=gZj=.GGGGGGGGG",
"GGGGGGGGGGG-fZDjgj=iVFFSVVSn:OGG=gZg=.GGGGGGGGGG",
"GGGGGGGGGG=fZDjgg:iVFDDFSVSSn:O=gZg=.GGGGGGGGGGG",
"GGGGGGGGG-fZDjfj:iVFDNNSFSBSSn;gZg=.GGGGGGGGGGGG",
"GGGGGGGG-gZZggg=zVFSNNNNSCjBVhjZg+.GGGGGGGGGGGGG",
"GGGGGGG-gZDjgg:iVFDMMNNNb>1bhgZf=OGGGGGGGGGGGGGG",
"GGGGGG-gZZgff:nMFSMNSNNAFzhgjZf-y:OGGGGGGGGGGGGG",
"GGGG->jZZggf:nnfbMVFSnBFFDtjCf:hVM7OGGGGGGGGGGGG",
"GGG--jZZjgf:nnftsNAh6$gAmgjZ<=fBVVM7O.GGGGGGGGGG",
"GG->jZZggf:sNgfsVD$@03$<tjZ1:tgbBBSn7+.GGGGGGGGG",
"GG=gZZgft:sNjhnNFS64Dx3#jZ1-bNzfjBBBMyO.GGGGGGGG",
"GG=>jgO=radDbsNFVN65DAq3;<:iDFNz<hNBSny+.GGGGGGG",
"GGG.=OG+rauVsVFSSC#qAvx03#7MNDDNhjSBBBNy+.GGGGGG",
"GGGG.GGX%raddDSBv$5vvxeq43$iMBFBnSFSNBBny+.GGGGG",
"GGGGGGGGX%ydadM7@qvvxq05443#zFSMNnBFDNBBny+XGGGG",
"GGGGGGGGGX%rad63xAkxqq54443$CSnMnNnBCbmBBny*XGGG",
"GGGGGGGGGG.+7#5vAcxq044433#7BnnnnMnhfjjbNBny*XGG",
"GGGGGGGGGGG#@qAAcxqq843$777innnnnnnt<ffhbNBny*oG",
"GGGGGGGGG@@3xDAcxeq543*yBFFBsnsnnnnmf>1<fmmBMy*G",
"GGGGGGGG@@5cDvcxeq544;hblBNFVsssnnNFBt->znmmi6oG",
"GGGGGGG@@5ADvcxeq984#yD221sNFBssnBFBnntzFBni6oGG",
"GGGGGG@@0ADmcxew084#6yM2,gssNFBzbDBnnnnnFSi6XGGG",
"GGGGG@@0DDvcxeq9843*%*ynZSsssNCgjjzsnnnSDi6oGGGG",
"GGGG@3qDDvcxe00883#+X.*yMFSssi>ffftsssSSi&XGGGGG",
"GGG@@0DAAcxew0883#G.GGX*ynFSssy>>tssnSDi&oGGGGGG",
"GG@@5SDmcxew9884#GGGGGGo&rsFSsst:issDFy6oGGGGGGG",
"GG@4vDvcxew9884#.GGGGGGGo*rsFSsssssDDy6oGGGGGGGG",
"G@3pDvcxew9884#.GGGGGGGGGX&6sDDsssSSy&XGGGGGGGGG",
"G@9Amcpew9984#.GGGGGGGGGGGX&6sFSnDDr&XGGGGGGGGGG",
"G3wmcpew9983@GGGGGGGGGGGGGG.&6sSFSy&.GGGGGGGGGGG",
"G@9epew9994#.GGGGGGGGGGGGGGGX&6snr&.GGGGGGGGGGGG",
"G@49ww9984@GGGGGGGGGGGGGGGGGG.&6r&.GGGGGGGGGGGGG",
"GG@38984@XGGGGGGGGGGGGGGGGGGGGG&&.GGGGGGGGGGGGGG",
"GGGX@@@oGGGGGGGGGGGGGGGGGGGGGGGXXGGGGGGGGGGGGGGG",
"GGGGGGGGGGGGGGGGGGGGGGGGGGGGGGGGGGGGGGGGGGGGGGGG",
"GGGGGGGGGGGGGGGGGGGGGGGGGGGGGGGGGGGGGGGGGGGGGGGG"
};
