/* XPM */
static char *panTasks[] = {
/* columns rows colors chars-per-pixel */
"48 48 33 1",
"  c #010101",
". c #0f0f11",
"X c #161617",
"o c #1e1e21",
"O c #27272a",
"+ c #2d2d33",
"@ c #36363a",
"# c #3c3c42",
"$ c #454548",
"% c #4c4c55",
"& c #565659",
"* c #5a5a65",
"= c #64646c",
"- c #6b6b76",
"; c #71717d",
": c #797989",
"> c #7e7e91",
", c #80808f",
"< c #85859a",
"1 c #8b8ba2",
"2 c #9494aa",
"3 c #9c9cb3",
"4 c #a4a4bb",
"5 c #acacc2",
"6 c #b7b7cb",
"7 c #bdbdd1",
"8 c #c8c8d9",
"9 c #d2d2df",
"0 c #dadae7",
"q c #e2e2ed",
"w c #eaeaf3",
"e c #fdfdfe",
"r c None",
/* pixels */
"rrrrrrrrrrrrrrrrrrrrrrrrrrrrrrrrrrrrrrrrrrrrrrrr",
"rrrrrrrrrrrrrrrrrrrrrrrrrrrrrrrrrrrrrrrrrrrrrrrr",
"rrrrrrrrrrrrrrrrrrrrrr1111111rrrrrrrrrrrrrrrrrrr",
"rrrrrrrrrrrrrr11rrrrrr12321<<<<<rrrrrrrrrrrrrrrr",
"rrrrrrrrrrrr11111rrrr115qq86532<rrrrrrrrrrrrrrrr",
"rrrrrrrrrrr112551<rrr<17eeeee05- rrrrrrrrrrrrrrr",
"rrrrrrrrr11138wq51<<<>30eeeeew5: rrrrrrrrrrrrrrr",
"rrrrrrrr11260weew61<115weeeeew5:.rrrrrrrrrrrrrrr",
"rrrrrrr1<36wweeeew75800eeeeeew5<orrr,>>,rrrrrrrr",
"rrrrrrr11560ewweeewweeeeeeeeee71:>>>>><>>rrrrrrr",
"rrrrrr<<3558weweeeeeeeeeeeeeeee04<><3881::rrrrrr",
"rrrrrr<<5666qwewwweweeeeeeeeeeeew660wee6>:rrrrrr",
"rrrrrr<<56658wweeweeeeeeeeeeeeeeeeeeeeew5::rrrrr",
"rrrrrrr>15660wewweeweeeeeeeeeeeeeeeeeeeeq3::rrrr",
"rrr<>>>>>368wwwwewwew09890qeeeeeeeeeeeeee7<-rrrr",
"rrr><333336qwwwwwww966666688qeeeeeeeeeee93<# rrr",
"rr>>3700q00wwwwwww866666888788weeeeeeee84<%  rrr",
"rr>>47qqqwqwwwwww95544445688889eeeeeee04<*.  rrr",
"r>>357qqqqwwwwww0531>;;:<2468880eeeeee02-.  rrrr",
"r:>458qqqqqqqwww82-#X .X+*>26889weeeeee4-. rrrrr",
"r:>55800qqqqqqww6<#       @;15990eeeeee6:#%rrrrr",
"r:<556790qqqqqqq6<O rrrrrrrO;2690eeeeee01:---rrr",
"r:<5666678qqqqqq6<Orrrrrrrrr+;480eeeeeeew83:--;r",
"r:156666670qqqqq81$rrrrrrrrrr-<70weeeeeeeee03-$r",
"r:255666670qqqqq03-.rrrrrrrrr-:40weeeeeeeeee4-.r",
"r;-,245676800qqqq6,&rrrrrrrrr--40eeeeeeeeeew2*.r",
"rr.+*:<466700qqqq04:--rrrrrrr--4weeweeeeeee0<& r",
"rrr  X=366900q0qqq04;---rrr-=-20eweeeeeeeee0<$ r",
"rrrrr+*16900000q0qq06<-====-;30weeweee000006,@ r",
"rrrrr::48000000qqqqqq0641<248wweweeeew888873;O r",
"rrrr;-25800000000q0qqqwqqqwwwwwweweww088885<&. r",
"rrrr-:4569000000000qqqqqwwwwwwwewwww0577762=X  r",
"rrr--24647999988000qqqqqwqwwwwwwweee02<,<<;@  rr",
"rrr-;456648988647900q0qqqwqwwwwwwwwww6-&$$$  rrr",
"rrr-*:4644867866568000qqqwqwwwwwwwweeq2&     rrr",
"rrrr.&<46688766666600q0q0q00099qwwwwww6;+   rrrr",
"rrrrrX=14764224666790000q0888768wwwww04,$ rrrrrr",
"rrrrrrO;241,==,456890000008887668qw0961=X rrrrrr",
"rrrrrrr@;;&@Xo%-1689000000887777788883;@  rrrrrr",
"rrrrrrr +O.    #>68889000543147778885>%  rrrrrrr",
"rrrrrrrrr    rr%;68888887<-&&:468862:&X  rrrrrrr",
"rrrrrrrrrrrrrrr&;58888884;@.X%:364<=#X  rrrrrrrr",
"rrrrrrrrrrrrrrr&-4687885<&.  X$;<;%O   rrrrrrrrr",
"rrrrrrrrrrrrrrr&=;,<2453=O  rr.$&@.   rrrrrrrrrr",
"rrrrrrrrrrrrrrr&O+#%&=:;$  rrrr X   rrrrrrrrrrrr",
"rrrrrrrrrrrrrrrrr   Xo+@X  rrrrr   rrrrrrrrrrrrr",
"rrrrrrrrrrrrrrrrrr        rrrrrrrrrrrrrrrrrrrrrr",
"rrrrrrrrrrrrrrrrrrrrrrrrrrrrrrrrrrrrrrrrrrrrrrrr"
};
