/* XPM */
static char *pause[] = {
/* columns rows colors chars-per-pixel */
"16 16 17 1",
"  c black",
". c #043198",
"X c #134eb1",
"o c #2e61b6",
"O c #5074ba",
"+ c #497dc1",
"@ c #3296f8",
"# c #38a0ff",
"$ c #5ca8ee",
"% c #53adfc",
"& c #6cc2ff",
"* c #8eb9ea",
"= c #86ccfc",
"- c #b5d9fa",
"; c #adf1ff",
": c #e9faff",
"> c None",
/* pixels */
"XOOOO.>>>>.OOOO.",
"o:::-.>>>>.-:::O",
"o---*.>>>>.*---O",
"o===$.>>>>.$=**o",
"X%%%@.>>>>.@%%%o",
"X@@#@.>>>>.o@#@X",
"X#@@@.>>>>.@@#@X",
"X@##@.>>>>.@###X",
"X###@.>>>>.@@@@X",
"X@#@@.>>>>.+@@#X",
"X@@#@.>>>>.@###X",
"X%%%@.>>>>.@%%%X",
"X&&&$.>>>>.$&&&o",
"o===&.>>>>.$==&o",
"o;;;=.>>>>.=;;;o",
".@O++.>>>>.o+++X"
};
