/* XPM */
static char *start_xpm[] = {
/* columns rows colors chars-per-pixel */
"16 16 17 1",
"  c black",
". c #001e8d",
"X c #032d95",
"o c #1c53b2",
"O c #3165ba",
"+ c #2471d4",
"@ c #4e70ba",
"# c #4479c5",
"$ c #3498fc",
"% c #3897f1",
"& c #4eacfd",
"* c #65a9ea",
"= c #77cbfd",
"- c #99b0da",
"; c #9ed6fc",
": c #eefeff",
"> c None",
/* pixels */
">>>>>>>>>>>>>>>>",
"XX.>>XXXX>>>>>>>",
"@-o.>X@@..>>>>>>",
"@:;@..@:-o.>>>>>",
"@;;;*XO;;-O.X>>>",
"@;**;-O#==;*XX>>",
"o&&&$&&+o#&=*oXX",
"O&$$$$$&%o+$$&+X",
"o&$$$$$%%o+$$$+X",
"o&$&$&%+o+&$%oXX",
"O&&&&&OO&&=%XXX>",
"O===%Xo==*OXX>>>",
"O;=OX.O;*oX>>>>>",
"O=oX>XO%.X>>>>>>",
"oX.>>XXX.>>>>>>>",
">>>>>>>>>>>>>>>>"
};
