/* XPM */
static char *tree_unk[] = {
/* columns rows colors chars-per-pixel */
"16 16 17 1",
"  c #040404",
". c #161616",
"X c #2a2a2a",
"o c #373737",
"O c #484848",
"+ c gray35",
"@ c #686868",
"# c #777777",
"$ c gray54",
"% c #989898",
"& c #aaaaaa",
"* c #b9b9b9",
"= c gray79",
"- c gray85",
"; c #e7e7e7",
": c #f8f8f8",
"> c None",
/* pixels */
">>>>>>>>>>>>>>>>",
">>>>>>XOOX>>>>>>",
">>>>o#&-;&+.>>>>",
">>>O%-::::-$X>>>",
">>o$=-;::;-=#X>>",
">>+#*=-;;-=*#O>>",
">o+O%*=--=*%++X>",
">++O+$&***%+O+O>",
">@@+@@#$$#@@+@O>",
">O#@@#$%%$#@@@X>",
">>@@#$%&&%$#@+>>",
">>X@$%&**&%$@X>>",
">>>o#%*==*%#o>>>",
">>>>X+$**%+X>>>>",
">>>>>>XOOX>>>>>>",
">>>>>>>>>>>>>>>>"
};
