/* XPM */
static char *tree_lgr_xpm[] = {
/* columns rows colors chars-per-pixel */
"16 16 14 1",
"  c none",
". c #105a48",
"X c #0c9824",
"o c #1aff18",
"O c #3cd656",
"+ c #409c7e",
"@ c #52ff3a",
"# c #64ff62",
"$ c #9aff66",
"% c #92ff9e",
"& c #b4ffac",
"* c #ccff92",
"= c #ffffb0",
"- c white",
/* pixels */
"                ",
"      .+..      ",
"    XO----+.    ",
"   X%------%.   ",
"  .#--------%.  ",
"  X#--------#X  ",
" .Oo&------&oO. ",
" Xooo&----&ooo+ ",
" O@@@$$$$$$@@@+ ",
" X#@@$$**$$$@#. ",
"  O$$$****$$$O  ",
"  .%$$*==**$%.  ",
"   .%*====*%.   ",
"    .+&==&O.    ",
"      .++.      ",
"                "
};
