/* XPM */
static char *tree_blue_xpm[] = {
/* columns rows colors chars-per-pixel */
"16 16 17 1",
"  c #000004",
". c #00002D",
"X c #0C0F67",
"o c #020A90",
"O c #0C2FA3",
"+ c #1365E9",
"@ c #2C4EC0",
"# c #2D82FF",
"$ c #4F93FE",
"% c #70ADFF",
"& c #629EFD",
"* c #87AFF3",
"= c #A0C9FE",
"- c #FEFEFF",
"; c #E9F3FF",
": c #CFE1FE",
"> c None",
/* pixels */
">>>>>>>>>>>>>>>>",
">>>>>OO@@@oX>>>>",
">>>+@*;---:*oo>>",
">>O@=;;-----=OX>",
">OO&::;;-;;::&X>",
">O+#=:::;;::=$O>",
">O++%=::::==&++X",
">@+++%*====&+++o",
">+###$$&$&$$##+O",
">+##$$&&&&&$$$#O",
">O$$&&%%&%%&&$#X",
">O#$&%%%%%%%&&@>",
">OO$%%%*=**%%$X>",
">>XO%*%===%=&O>>",
">>>>X$*==%%@X>>>",
">>>>>>XO@OX>>>>>"
};
