/* XPM */
static char *tree_no[] = {
/* columns rows colors chars-per-pixel */
"16 16 17 1",
"  c #0f0204",
". c #590808",
"X c #742020",
"o c #940d0d",
"O c #a42828",
"+ c #b45254",
"@ c #f20a0b",
"# c #fb2625",
"$ c #f13b3a",
"% c #f34a4a",
"& c #fa5958",
"* c #e08788",
"= c #fc9999",
"- c #fcacad",
"; c #facece",
": c #fbf4f4",
"> c None",
/* pixels */
">>>>>>>>>>>>>>>>",
">>>>>>....>>>>>>",
">>>>.O*;;*O.>>>>",
">>>.+;::::;+.>>>",
">>.O-;;::;;-$.>>",
">>o#=-;;;;-=$.>>",
">.o@&=----=&@o.>",
">.@@@&*==*&@@@.>",
">o@@@@@###@@@@.>",
">.#@@######@@#.>",
">>o@@#$$$$#@@o>>",
">>.O##$%%$##O.>>",
">>>.O$$%%$$O.>>>",
">>>>.X$&&$X.>>>>",
">>>>>>.XX.>>>>>>",
">>>>>>>>>>>>>>>>"
};
