/* XPM */
static char *tree_lgr_xpm[] = {
/* columns rows colors chars-per-pixel */
"16 16 17 1",
"  c #012D2F",
". c #004E0E",
"X c #1E632B",
"o c #2D594B",
"O c #406C58",
"+ c #77DC48",
"@ c #68AD5B",
"# c #99FC68",
"$ c #91F360",
"% c #B0FE8E",
"& c #B9FAA9",
"* c #C7FEB5",
"= c #D8FBCA",
"- c #F5FDF1",
"; c #E7FED8",
": c #90B793",
"> c None",
/* pixels */
">>>>>>Xoo>>>>>>>",
">>>>O:=--;:o>>>>",
">>>@;-------:>>>",
">>@=--------;@>>",
">X$*=;---;;;=$>>",
">@+%==;;;;==&+@>",
">++$%*====*%$++>",
"X+$+$#%%%%#$++$o",
"X$$##########$$X",
"X$$###%#%#%###$o",
">+###%%%%%%###@>",
">X##%%&&*&%###o>",
">>@#%%&***&%%@>>",
">>>@%**==**&@>>>",
">>>>o:&**&:O>>>>",
">>>>>>oooo>>>>>>"
};
