/* XPM */
static char *tree_orange_xpm[] = {
/* columns rows colors chars-per-pixel */
"16 16 17 1",
"  c #6E3820",
". c #734429",
"X c #71401F",
"o c #8D180D",
"O c #925B2E",
"+ c #E9730F",
"@ c #AD6B44",
"# c #FE8F04",
"$ c #FFAD02",
"% c #DE942B",
"& c #FFBB50",
"* c #FDC706",
"= c #CE9A4D",
"- c #FFE2A1",
"; c #FDF3DF",
": c #CCA88D",
"> c None",
/* pixels */
">>>>>>O.O..>>>>>",
">>>>O:;;;;:O  >>",
">>>@;;;;;;;;=. >",
"> +-;;;;;;;;-@ >",
" o#--;;;;;;--%O.",
"o++&----;---&#+.",
"o++#&------&#++.",
"o+++##&&&&%####O",
"o##############O",
"o####$$$$#$###+O",
"o+##$$$$$$$$##+.",
"oO##$$**$$$$$#O.",
"> @#******$$$@.X",
">.X@********=.X>",
">>>X@=&***%O.X>>",
">>>>...OO..X>>>>"
};
