/* XPM */
static char *tree_yell_xpm[] = {
/* columns rows colors chars-per-pixel */
"16 16 17 1",
"  c #935D01",
". c #986502",
"X c #AC7906",
"o c #AA7C29",
"O c #B68711",
"+ c #CFA617",
"@ c #FEF509",
"# c #FFFC2F",
"$ c #EDD213",
"% c #FFFE50",
"& c #F6F065",
"* c #CEB252",
"= c #FFFE8E",
"- c #F9F5A6",
"; c #FDFBCE",
": c #FEFDF4",
"> c None",
/* pixels */
">>>OXXXoo    >>>",
">>O++-;::;*o  >>",
">XO*;::::::;*  >",
"XX$=;;::::;;-* .",
"XO$=-;;:;;;--#X ",
"X$$%=--;;;--&@+.",
"O$$@%==--==%@$$X",
"+$@@@##%%%@@@@@O",
"+@@@@@@@@@@@@@@O",
"+@@@@######@@@@X",
"O$@@##%%%%##@@$ ",
"X+@@#%&&&%%##@O ",
"O.+#%%&==&%%#$  ",
">..+%&&==&&%*. >",
">>..O*&==&*O  >>",
">>>   oOOo.  >>>"
};
