/* XPM */
static char *_btnDel_xpm[] = {
/* columns rows colors chars-per-pixel */
"16 16 22 1",
"  c black",
". c #1e1e1e",
"X c #232323",
"o c gray16",
"O c #323232",
"+ c gray23",
"@ c #434343",
"# c #4e4e4e",
"$ c #515151",
"% c #5a5a5a",
"& c gray39",
"* c gray49",
"= c #848484",
"- c #9b9b9b",
"; c gray71",
": c #bbbbbb",
"> c gray80",
", c gray82",
"< c gray86",
"1 c #e4e4e4",
"2 c gray92",
"3 c None",
/* pixels */
"3333333333333333",
"33O$=@O33oO*#o33",
"3O%<2,@OO+>22%X3",
"3$1;&>,+o>,#-1#3",
"3=2&%%>>>>#@@1=3",
"3@,>%%$>>#@@;,@3",
"3O@<>####@@;<@X3",
"33o+>>###@;,+.33",
"33o+>>$@@@:,OX33",
"3o+>,#@@@++:,+.3",
"3+>>#@@;;+OO;>O3",
"3*2#@@;,,;OOO<=3",
"3$1-@;<+O,;+*1#3",
"3o%1<<@XXO>,<&.3",
"33X$=+.33XO=#.33",
"3333333333333333"
};
