/* XPM */
static char *_opts_vulner_xpm[] = {
/* columns rows colors chars-per-pixel */
"16 16 16 1",
"  c black",
". c gray8",
"X c #1b1b1b",
"o c #232323",
"O c gray17",
"+ c #313131",
"@ c gray23",
"# c gray25",
"$ c gray31",
"% c gray36",
"& c #646464",
"* c #777777",
"= c #898989",
"- c #a5a5a5",
"; c #b6b6b6",
": c None",
/* pixels */
"::::::::::::::::",
":::::X+@@@.OO:::",
":::XX@;*%--*%O::",
"::X.O-;=%*;;@:::",
"X+o@*==$$&=;@:::",
"o#$&=&$$&=@%&.::",
"+$$$$$$&==OO#X::",
"X@$$$$===*O@#.::",
"..#$&O@===o#@O::",
"Xo#$@OO&&$$#..::",
"X####Oo$$$#o:..:",
":X@#$#$$##X:::::",
"::.X++++X..:::::",
":::..:::::..::::",
"::..:::::..:::::",
"::::::::::::::::"
};
