/* XPM */
static char *_panSettings_xpm[] = {
/* columns rows colors chars-per-pixel */
"48 48 31 1",
"  c black",
". c #131313",
"X c gray11",
"o c #272727",
"O c #2d2d2d",
"+ c gray21",
"@ c #3f3f3f",
"# c gray25",
"$ c #4e4e4e",
"% c #555555",
"& c #5f5f5f",
"* c gray39",
"= c gray42",
"- c #717171",
"; c #7c7c7c",
": c #818181",
"> c #898989",
", c gray57",
"< c #9b9b9b",
"1 c gray65",
"2 c gray68",
"3 c #b4b4b4",
"4 c #bbbbbb",
"5 c gray77",
"6 c gray80",
"7 c #d7d7d7",
"8 c #dadada",
"9 c #e6e6e6",
"0 c gray94",
"q c #fefefe",
"w c None",
/* pixels */
"wwwwwwwwwwwwwwwwwwwwwwwwwwwwwwwwwwwwwwwwwwwwwwww",
"wwwwwwwwwwwwwwwwwwwwwwwwwwwwwwwwwwwwwwwwwwwwwwww",
"wwwwwwwwwwwwwwwwwww*%%wwwwwwwwwwwwwwwwwwww*%%Oww",
"wwwwwwwwwwwwwwwwwww*;*Owwwwwwwwwwwwwwwww*%=22%Ow",
"wwwwwwwwwwwwwwwwww%=06%Owwwwwwwwwwwwwww%=3083:Ow",
"wwwwwwwwwwwwwwwwwww%2q3*Owwwwwwwwwwwww*20q63<%.w",
"wwwwwwwwwwwwwwwwww%=6q8=Xwwwwwwwwwwww%,q8862*Oww",
"wwwwwwwwwwwwwwwww%=8q6*.wwwwwwwwwwwww%2q086,Owww",
"wwwwwwwwwwwwwwww%=8q3=OOOwwwwwwwwwwww%30883=.www",
"wwwwwwwwwwwwwww%;8q6>1%>%Owwwwwwwwww%,84<>;Owwww",
"wwwwwwwwwwwwww%;8q3,2*306%Owwwwwwww%,83%OOOwwwww",
"wwwwwwwwwwwww%,8q2>2*30007%Owwwwww%<82%.wwwwwwww",
"wwwwwwwwwwww*>8q2,2*3000008*Owwww%<82%.wwwwwwwww",
"wwwwwwwwwww*,802<2%30qq00007*Oww%<8<%.wwwwwwwwww",
"wwwwwwwwww%,802<<*30q00q00008*O%<8<%.wwwwwwwwwww",
"wwwwwwwww*,802,2*30q0990q09007&<8<%.wwwwwwwwwwww",
"wwwwwwww*<88<<<%30q0999906290128<#.wwwwwwwwwwwww",
"wwwwwww*<802<<*30q0999995=>51<8>%Owwwwwwwwwwwwww",
"wwwwww*<88<,>*79q0990998q31<28,*>*Owwwwwwwwwwwww",
"wwww*=288<<,*88,590q079qq0>26>*109;Owwwwwwwwwwww",
"www**2882<,*77>>6981=$<87<28;%,9009;O.wwwwwwwwww",
"ww*=288<<,*69,,600$o-+$;>28>*><69907;#.wwwwwwwww",
"ww%<88<,>*692179q0=@01++28>*693,29999,O.wwwwwwww",
"ww%=2<O%>780569q09=%08:+&;*30q93;19907,#.wwwwwww",
"www.%Ow@>74060q006+:851-++;890091209999,@.wwwwww",
"wwww.wwX$>7770095$%551,:@+$399q970q09997,@.wwwww",
"wwwwwwwwX$,7779;o:551:-%@#++3q09979q09997,@Xwwww",
"wwwwwwwwwX$>77=+1831::%#@#+$60797979657997,$Xwww",
"wwwwwwwwww.@;+%5841:-###+++;97777971,226997,$Xww",
"wwwwwwwwwww+o:8842::$#+$;;;37777777>;,>16997,$ow",
"wwwwwwwwwoo+10841,:%@+$>9qq967677788,=>;>8899,$w",
"wwwwwwwwoo%40542,;%@@%15799q0666779q9>*=37783=ow",
"wwwwwwwoo%80541,:&$@+,0>>>69q96689q977>3q973=oww",
"wwwwwwoo-80841,:-$@+=,9>*<669q9460977777q03=Xwww",
"wwwwwoo-00542,:*$@+$$$,78066696<2236777003=owwww",
"wwwwo+:00541,--$$++@X.$,9q0663=,,,>666003$Xwwwww",
"wwwoo-08841,;-$$++w.wwX$,7q066,==>668003$owwwwww",
"wwoo%00742,;*$$@+wwwwwwo$>6q066>*3660q,=owwwwwww",
"wwo#50541,;&$$@+.wwwwwwwo$>6q06666600,=owwwwwwww",
"wo+10541,:&$$@+.wwwwwwwwwX$=60066600,%Xwwwwwwwww",
"wo&8741,:&&$@+.wwwwwwwwwwwX$=6q0800>$Xwwwwwwwwww",
"w+:842,:&&$+owwwwwwwwwwwwww.%=60q0,$.wwwwwwwwwww",
"wo&,1,:&&&#+.wwwwwwwwwwwwwwwX$=67>$.wwwwwwwwwwww",
"wo#&::&&$#owwwwwwwwwwwwwwwwww.$=>%.wwwwwwwwwwwww",
"wwo+$&$#oXwwwwwwwwwwwwwwwwwwwww$$.wwwwwwwwwwwwww",
"wwwXoooowwwwwwwwwwwwwwwwwwwwwwwXXwwwwwwwwwwwwwww",
"wwwwwwwwwwwwwwwwwwwwwwwwwwwwwwwwwwwwwwwwwwwwwwww",
"wwwwwwwwwwwwwwwwwwwwwwwwwwwwwwwwwwwwwwwwwwwwwwww"
};
