/* XPM */
static char *_tree_no_xpm[] = {
/* columns rows colors chars-per-pixel */
"16 16 15 1",
"  c black",
". c #202020",
"X c #353535",
"o c #393939",
"O c gray31",
"+ c gray40",
"@ c #717171",
"# c gray49",
"$ c #898989",
"% c #a2a2a2",
"& c #b7b7b7",
"* c gray77",
"= c gray86",
"- c #f6f6f6",
"; c None",
/* pixels */
";;;;;;;;;;;;;;;;",
";;;;;;....;;;;;;",
";;;;.O%==%O.;;;;",
";;;.@=----=@.;;;",
";;.O*==--==*@.;;",
";;X+&*====*&@.;;",
";.XO$&****&$OX.;",
";.OOO$%&&%$OOO.;",
";XOOOOO+++OOOO.;",
";.+OO++++++OO+.;",
";;XOO+@@@@+OOX;;",
";;.O++@##@++O.;;",
";;;.O@@##@@O.;;;",
";;;;.o@$$@o.;;;;",
";;;;;;.oo.;;;;;;",
";;;;;;;;;;;;;;;;"
};
