/* XPM */
static char *btnDel_xpm[] = {
/* columns rows colors chars-per-pixel */
"16 16 52 1",
"  c #5c0000",
". c #680000",
"X c #760000",
"o c #7b1716",
"O c #8a0000",
"+ c #861b1b",
"@ c #960404",
"# c #981314",
"$ c #882222",
"% c #843838",
"& c #9b2e2e",
"* c #973031",
"= c #a60202",
"- c #a51819",
"; c #b60603",
": c #b32627",
"> c #b53334",
", c #8d4e4e",
"< c #a04142",
"1 c #a77272",
"2 c #ba6363",
"3 c #b47374",
"4 c #c70b02",
"5 c #c61305",
"6 c #d31809",
"7 c #d11912",
"8 c #e31b04",
"9 c #f21a00",
"0 c #ed2107",
"q c #f9290f",
"w c #f92917",
"e c #c66466",
"r c #e27f75",
"t c #dca7a7",
"y c #dfbebe",
"u c #e49e9a",
"i c #ff9e86",
"p c #e4a19d",
"a c #e1aba9",
"s c #efbcb6",
"d c #f9b9ad",
"f c #f4c1ba",
"g c #dcc8c9",
"h c #ded0d0",
"j c #e4c8c9",
"k c #e4d4d4",
"l c #f3d7d6",
"z c #fbe5df",
"x c #e9e2e1",
"c c #f0e0e1",
"v c white",
"b c None",
/* pixels */
"bbbbbbbbbbbbbbbb",
"bb@:e-@bbO@2&Obb",
"b=>lzj-@@#yzz<Xb",
"b:liwdj#@gf7rx*b",
"bezq99djys644l3b",
"b-jd098ds644uh$b",
"b@-kd666744uk$Xb",
"bb@#jd6665ah+.bb",
"bbO#gs7445ago.bb",
"bO#jf6455;;ajo.b",
"b#ss644aa;==tgob",
"b2z644uhgt==@k1b",
"b&cr4pk+ogt#2x%b",
"bO<xlk$X.ogjk, b",
"bbX*3+.bb.o1% bb",
"bbbbbbbbbbbbbbbb"
};
