/* XPM */
static char *filter_xpm[] = {
/* columns rows colors chars-per-pixel */
"16 16 17 1",
"  c #010204",
". c #040c28",
"X c #1f243a",
"o c #0f2058",
"O c #39417d",
"+ c #66676d",
"@ c #032b86",
"# c #3e5298",
"$ c #646b9a",
"% c #7a7adb",
"& c #7e86bf",
"* c #919197",
"= c #9191f4",
"- c #aeaeec",
"; c #cccdcf",
": c white",
"> c None",
/* pixels */
">>>>>>>>>>>>>>>>",
">>> >>   >>>>>>>",
">  ..XXXX.    >>",
".o$*;;;;;;;*+.  ",
"@&*;;;;;;;;;;*. ",
"@#***********$. ",
">o$-**++++$**X >",
">>o#-------%X >>",
">>>oo==%===$ >>>",
">>>>>o%====X >>>",
">>>>>>o--=%X >>>",
">>>>>>.%===X >>>",
">>>>>>.%---X >>>",
">>>>>> O=*+ >>>>",
">>>>>>>>>>>>>>>>",
">>>>>>>>>>>>>>>>"
};
