/* XPM */
static char *reload_xpm[] = {
/* columns rows colors chars-per-pixel */
"16 16 17 1",
"  c #013310",
". c #023226",
"X c #01510a",
"o c #036404",
"O c #21632c",
"+ c #325d4b",
"@ c #547960",
"# c #668e6c",
"$ c #63d14e",
"% c #708f80",
"& c #88e770",
"* c #92af9a",
"= c #a6de9b",
"- c #bdccc3",
"; c #ccfcb6",
": c #d9ecd6",
"> c None",
/* pixels */
">>>>>>>>oooX>>>>",
">>>>>ooooO=+X>>>",
">>oooOOOO#::# .>",
">oO*=;=====&;*XX",
"oO;=&=====&$=-X ",
"o=$&=#####-;*..>",
"+;&-oXX  O-@X >>",
"O##+X>oXXX. XX .",
"oXXXXXooXX  O%#+",
">>>o@=O    .-;:@",
">Xo#::#+@@@==&-.",
"XX*=$&=====$&-@.",
"Xo*=$$*&=*=**+.>",
">XX#-:@++++...>>",
">>> +*O    .>>>>",
">>>> X..>>>>>>>>"
};
