/* XPM */
static char *mainicon_xpm[] = {
/* columns rows colors chars-per-pixel */
"48 48 61 1",
"  c #040404",
". c gray4",
"X c gray8",
"o c gray11",
"O c #003333",
"+ c #222222",
"@ c gray16",
"# c gray20",
"$ c #393939",
"% c #333366",
"& c #336666",
"* c #663333",
"= c #666633",
"- c gray26",
"; c gray30",
": c #555555",
"> c #5f5f5f",
", c gray40",
"< c #777777",
"1 c #336699",
"2 c #3366cc",
"3 c #666699",
"4 c #6666cc",
"5 c #669933",
"6 c #669966",
"7 c #008080",
"8 c #339999",
"9 c #669999",
"0 c #6699cc",
"q c #993333",
"w c #996633",
"e c #996666",
"r c #cc6633",
"t c #cc6666",
"y c #999933",
"u c #999966",
"i c #99cc33",
"p c #99cc66",
"a c #cc9966",
"s c #ff9966",
"d c #cccc33",
"f c #cccc66",
"g c gray52",
"h c gray59",
"j c gray60",
"k c #ada990",
"l c #a0a0a4",
"z c #b2b2b2",
"x c #9999cc",
"c c #99cc99",
"v c #99cccc",
"b c #cc9999",
"n c #ff9999",
"m c #ffcc99",
"M c #c0c0c0",
"N c gray80",
"B c gray89",
"V c #eaeaea",
"C c #f1f1f1",
"Z c white",
"A c None",
/* pixels */
"AAAAAAAAAAAAAAAAAAAAAAAAAAAAAAAAAAAAAAAAAAAAAAAA",
"AAAAAAAAAAAAAAAAAAAAAAAAAAAAAA  ...... AAAAAAAAA",
"AAZZZZZZZZZZZZZZZZZZZZZZZZZZ XO%11111%+X. AAAAAA",
"AAZCCCCCCCCCCCCCCCCCCCCCCC XO130xvvvx091#X AAAAA",
"AAZC                      o%9jkkuppcxxvx0&O AAAA",
"AAZC Mvvvvvvvx Mvvvvvvvv O10lhhhuidp00lclx1O AAA",
"AAZC v99999999 v9999999 o1jp9900uplxxlppppl1O AA",
"AAZC x99999999 x9999999.%9p99pl0lxvljjcpiipx%XAA",
"AAZC                   O9piiidk0xxxxxkdddiiu9#.A",
"AAZC Mvvvvvvvx CCCCCCCX1hiiiih000xxxcfpdiiiig1X ",
"AAZC v99999999 CCCCCC +3piiih000000xpkjhpiiiu9O ",
"AAZC v99999999 CCCCCV %9yiig0000000xppphhpiiy9%.",
"AAZC v99999999 CCCCVV.1hy6g00000000pdddiiuiyu91X",
"AAZC v99999999 CCCVVV.1k69900000000dddddiiuy691X",
"AAZC x99999999 CVVVVV.1luu940000009ddddiii6y901X",
"AAZC                 .10199uu900000idiiiiiy6101X",
"AAZC Mvvvvvvvx VVVVVV.10119yiy900009ugpiiiy6101X",
"AAZC v99999999 VVVVVV.%3116yiiyg9444446iiiy113%.",
"AAZC v99999999 VVVVVV O1416yiiii9222229yii6111O ",
"AAZC v99999999 VVVVVVVX1411yiiiy911111<yii6131o ",
"AAZC v99999999 VVVBzg:.O1211yiiy311111<yiy111%.A",
"AAZC x99999999 Bl:-wta X%011yiy31111111yi614&o A",
"AAZC           +eattttt O1015y6111111116y301O AA",
"AAZC Mvvvvvxg#estttttttt O10661111111111331O AAA",
"AAZC v99999:*sttttttttttt O%33111111111111O AAAA",
"AAZV v9999;>stttttttttttrr X%11111111111%o AAAAA",
"AAZV v999,*sttttttttttttrrrr.oO%11111%Oo. AAAAAA",
"AAZV v999#ntttttttttttrrrrrrr  .XXXXX.  weXAAAAA",
"AAZV x99:ttttttttttttrrrrrrrrrrrrwwwwwwwww>AAAAA",
"AAZV    .ntttttttttrrrrrrrrrrrrrwwwwwwqqqqt AAAA",
"AAZV vvvonttttttttrrrrrrrrrrrrwwwwwwwwqqqqtoAAAA",
"AAZV v99Xnttttttrrrrrrrrrrg<<<<,,,&&&&&&&&g+AAAA",
"AAZV v99Xntttttrrrrrrrrrrac8888888817717779oAAAA",
"AAZV v99omttttrrrrrrrrrrrff9888888117177719XAAAA",
"AAZV v99omntrrrrrrrrrrrrrfff88888117177779&XAAAA",
"AAZV v99obmtrrrrrrrrrrrwafff98881171777789$.AAAA",
"AAZV     knmtrrrrrrrrwwwfffff881177777789%@AAAAA",
"AAZVVVVVN#bbntrrrrrrwwwwfffffu1177777789%#.AAAAA",
"AAZVVVVVBg:bbntrrrrwwwwaffffff8&7777199$OoAAAAAA",
"AAVNNNNNNM<-bbbarwwwwwwfffffffu177199&$O$AAAAAAA",
"AAAAAAAAAAA @eaaatrwwwwffffffff9899&%$$OAAAAAAAA",
"AAAAAAAAAAAAAX*attttewaffffffffu&&%%$#oAAAAAAAAA",
"AAAAAAAAAAAAAA X:tteeeuuuuuuyyy=%%%$+ AAAAAAAAAA",
"AAAAAAAAAAAAAAAA X#*eeuuuyyyyyy=%#X AAAAAAAAAAAA",
"AAAAAAAAAAAAAAAAAAA .X#==yy===#o AAAAAAAAAAAAAAA",
"AAAAAAAAAAAAAAAAAAAAAAAAAAAAAAAAAAAAAAAAAAAAAAAA",
"AAAAAAAAAAAAAAAAAAAAAAAAAAAAAAAAAAAAAAAAAAAAAAAA",
"AAAAAAAAAAAAAAAAAAAAAAAAAAAAAAAAAAAAAAAAAAAAAAAA"
};
