/* XPM */
static char *demoPlugin_xpm[] = {
/* columns rows colors chars-per-pixel */
"16 16 17 1",
"  c #1d1d1d",
". c #5e7443",
"X c #4db436",
"o c #ab4d1c",
"O c #ed0f11",
"+ c #f9620d",
"@ c #ed615f",
"# c #bdca63",
"$ c #f69c0d",
"% c #fbcd06",
"& c #abadad",
"* c #e09c9d",
"= c #c9c9ac",
"- c #cbcccc",
"; c #e9d5d9",
": c #f2f3f4",
"> c None",
/* pixels */
".-------------& ",
"-:::::::::::::- ",
"=:::::::::::::- ",
"&::*@=:::;$*;:- ",
"&;@@@@*;#%%$$=- ",
"&@@*@@oo%%%%$@- ",
"&@OO@o.XX$%$++= ",
"&@OOo&##XXo++@- ",
"&:@OX##XXX.+#-- ",
"&::-XXXXXX.&::& ",
"&:::=XXXX.&:;:- ",
"&::::-XX.&--;:& ",
"&:::::;--::;-:& ",
"&:::::::::::::- ",
".:-;:;;;------& ",
"                "
};
